<?xml version="1.0" encoding="utf-8"?>
<!-- Generator: Adobe Illustrator 17.0.0, SVG Export Plug-In . SVG Version: 6.00 Build 0)  -->
<!DOCTYPE svg PUBLIC "-//W3C//DTD SVG 1.1//EN" "http://www.w3.org/Graphics/SVG/1.1/DTD/svg11.dtd">
<svg version="1.1" id="Layer_1" xmlns="http://www.w3.org/2000/svg" xmlns:xlink="http://www.w3.org/1999/xlink" x="0px" y="0px"
	 width="1062px" height="792px" viewBox="0 0 1062 792" enable-background="new 0 0 1062 792" xml:space="preserve">
<g>
	<path fill="#FFFFFF" d="M473.007,50.183c130.667,0,261.333,0,392,0c0,176.333,0,352.667,0,529
		c-23.372-26.002-46.751-51.997-70.086-78.032c-0.827-0.922-1.701-2.231-1.723-3.376c-0.151-7.762-0.079-15.529-0.079-23.37
		c4.996,0,10.279-0.084,15.558,0.033c2.929,0.065,4.423-0.739,3.294-4.103c-7.568-0.477-15.138-0.954-23.431-1.476
		c0.585-11.433,1.148-22.436,1.698-33.194c10.513,0,20.263,0,30.013,0c0.275-0.4,0.55-0.801,0.825-1.201
		c-1.308-0.846-2.55-2.275-3.937-2.435c-5.709-0.658-11.462-0.93-17.198-1.343c-0.002-0.21-0.003-0.42-0.005-0.63
		c9.433,0,18.867,0,28.262,0c0.201-5.537,0.174-5.381-3.965-6.097c-5.544-0.959-11.345-1.412-16.506-3.434
		c-23.039-9.029-45.935-18.427-68.764-27.976c-4.159-1.739-8.146-3.007-10.742-8.654c-2.19-4.763-1.263-8.467-2.315-12.93
		c9.097,0.642,17.387,1.288,25.687,1.751c1.306,0.073,3.658-0.436,3.821-1.096c0.873-3.54,1.206-7.212,1.715-10.763
		c-6.077-1.355-11.482-2.3-16.736-3.778c-23.105-6.498-44.499-15.908-59.759-35.645c-0.842-1.089-2.74-1.799-4.203-1.905
		c-17.105-1.236-33.065-5.958-47.676-15.076c-0.815-0.508-2.166-0.156-3.467-0.213c-1.818,11.766-6.606,21.838-14.504,30.37
		c-0.996,1.076-2.363,2.853-3.353,2.725c-7.272-0.944-14.531-2.099-21.711-3.59c-3.656-0.76-5.271-3.262-4.818-7.364
		c0.62-5.612,0.906-11.3,0.78-16.943c-0.109-4.895-0.991-9.773-1.548-14.814c12.425,0.919,23.278,5.408,35.271,2.125
		c-1.112-1.481-1.777-3.136-2.434-3.132c-23.627,0.131-45.839-7.776-68.871-12.317c-0.253-1.032-0.593-2.423-1.147-4.684
		c23.458,7.135,46.502,13.02,70.822,13.438c0-3.103,0-5.705,0-8.652c-1.645-0.375-3.392-0.758-5.133-1.171
		c-18.736-4.447-37.498-8.786-56.193-13.4c-8.45-2.085-15.801-5.498-12.846-16.757c-5.021,1.619-5.493,0.355-3.848-8.756
		c1.409-0.101,2.869-0.206,5.646-0.405c-3.367-7.594-6.525-14.716-9.787-22.074c-4.151,0.533-7.677-1.826-10.192-7.258
		c18.878,3.284,37.901,6.593,57.142,9.941c0.164-2.025,0.181-3.019,0.335-3.991c0.6-3.77-0.033-5.823-4.8-5.586
		c-3.146,0.156-6.665-1.029-9.535-2.533c-13.233-6.935-26.27-14.241-39.439-21.299c-3.161-1.694-4.411-3.904-4.225-7.564
		c0.269-5.305,0.146-10.658-0.229-15.961c-0.4-5.663-1.287-11.292-2.027-17.479c9.476,1.925,17.706,3.597,25.796,5.24
		c1.841-3.245,1.553-4.809-1.993-5.134c-3.131-0.287-6.247-0.91-9.323-1.593c-23.004-5.108-44.619-14.124-66.045-23.638
		c-7.91-3.513-15.702-7.289-23.548-10.944c17.374,6.154,34.367,13.152,51.598,19.505c17.295,6.377,35.01,11.355,53.865,13.366
		c0-1.669,0-3.018,0-3.727c-10.323-2.343-20.199-4.511-30.026-6.885c-1.672-0.404-3.615-1.317-4.613-2.622
		c-9.995-13.072-20.48-25.842-29.492-39.573C476.877,78.936,471.568,65.379,473.007,50.183z"/>
	<path fill="#FFFFFF" d="M18.007,572.183c0-173.91,0-347.82,0-522c147.333,0,294.667,0,442,0c0.031,1.498-0.14,3.033,0.129,4.487
		c0.963,5.225-1.4,7.465-6.279,9.194c-15.962,5.656-31.72,11.889-47.56,17.89c-3.947,1.495-7.91,2.95-12.425,4.632
		c0-3.382,0-5.994,0-8.701c-4.07,0-7.766,0-12.476,0c4.891,16.043-5.794,24.038-15.952,31.969
		c-19.981,15.599-42.931,25.072-67.243,31.548c-1.248,0.332-2.458,0.806-3.685,1.213c0.076,0.215,0.153,0.43,0.229,0.644
		c4.994,0.45,9.987,0.899,15.88,1.43c-6.439,1.336-6.439,1.336-4.863,5.661c7.898-1.345,15.859-2.7,23.74-4.042
		c0.257,0.631,0.501,0.941,0.487,1.239c-0.564,12.414-1.086,24.831-1.843,37.234c-0.069,1.131-1.432,2.655-2.569,3.176
		c-12.217,5.587-24.383,11.321-36.838,16.332c-5.569,2.241-11.661,4.093-17.857,0.893c-0.822-0.424-2.521,0.849-4.277,1.51
		c4.009,4.804,8.697,5.006,13.605,4.322c3.27-0.456,6.516-1.085,9.772-1.636l-0.079-0.099c-5.581,2.149-11.162,4.297-16.697,6.428
		c0.399,2.747,1.148,4.374,4.218,2.938c1.934-0.905,4.109-1.29,6.169-1.932c15.31-4.768,30.617-9.542,46.269-14.422
		c0,1.129,0.103,1.784-0.015,2.395c-3.305,17.079-10.627,32.226-22.751,44.711c-5.787,5.959-11.851,12.219-19.002,16.125
		c-7.42,4.053-16.18,6.001-24.581,7.822c-9.998,2.168-20.237,3.221-32.042,5.011c2.347,1.711,3.897,2.84,5.16,3.762
		c-5.75,0.843-7.287,2.526-6.6,8.542c12.821-0.941,25.686-1.886,39.067-2.868c0,1.564,0.113,3.203-0.019,4.821
		c-0.65,7.943-1.974,15.887-1.878,23.817c0.088,7.273-1.936,12.513-9.051,15.297c-9.506-2.82-16.186-9.109-20.608-18.32
		c-0.784-1.633-4.484-3.127-6.449-2.735c-16.496,3.292-32.824,2.07-49.04-1.408c-4.178-0.896-9.454-0.142-11.926-5.426
		c-0.308-0.659-2.299-0.53-3.429-0.75c-1.314,4.446-2.381,8.448-3.677,12.373c-5.562,16.837-17.739,25.561-34.866,27.829
		c-2.813,0.372-5.795-0.691-8.712-0.88c-1.487-0.096-3.004,0.276-3.049,0.28c0,4.913,0,8.623,0,13.338c10.289,0,20.328,0,30.35,0
		c0,9.187,0.175,17.332-0.143,25.458c-0.066,1.695-1.57,4.124-3.069,4.841c-7.634,3.652-15.298,7.408-23.299,10.093
		c-15.996,5.367-32.218,10.06-48.243,14.999c0.942,3.435,1.992,7.268,3.129,11.414c10.222-0.833,20.899-1.702,32.037-2.609
		c-0.67,7.287-1.079,13.858-1.989,20.359c-0.281,2.008-1.463,4.432-3.026,5.628c-8.713,6.663-18.749,9.816-29.686,10.19
		c-3.399,0.116-3.398,0.146-2.896,4.07c11.308,0.862,21.692-2.091,31.33-7.852c2.892-1.729,5.567-2.742,9.176-3.023
		c26.374-2.059,52.703-4.682,79.05-7.085c5.902-0.538,11.82-0.907,17.844-1.362c-0.746,5.579-9.568,13.736-15.354,14.162
		c-28.701,2.115-57.405,4.196-86.125,6.031c-11.571,0.739-23.184,0.82-34.867,1.203c0,2.376,0,4.285,0,6.713
		c10.527,0,20.76,0,32.874,0c-4.931,10.369-9.052,19.709-13.815,28.708c-1.856,3.506-2,5.951,1.132,8.413
		c-0.434,0.536-0.689,0.947-1.034,1.263c-23.072,21.15-46.146,42.297-69.25,63.413C19.847,571.475,18.853,571.749,18.007,572.183z"
		/>
	<path d="M18.007,572.183c0.846-0.435,1.84-0.708,2.517-1.327c23.104-21.115,46.178-42.262,69.25-63.413
		c0.344-0.315,0.6-0.727,1.034-1.263c-3.132-2.462-2.988-4.907-1.132-8.413c4.763-9,8.883-18.339,13.815-28.708
		c-12.114,0-22.347,0-32.874,0c0-2.428,0-4.337,0-6.713c11.683-0.383,23.296-0.464,34.867-1.203
		c28.72-1.835,57.424-3.916,86.125-6.031c5.786-0.426,14.609-8.584,15.354-14.162c-6.025,0.455-11.942,0.824-17.844,1.362
		c-26.347,2.402-52.676,5.026-79.05,7.085c-3.609,0.282-6.284,1.295-9.176,3.023c-9.638,5.761-20.022,8.714-31.33,7.852
		c-0.502-3.924-0.503-3.954,2.896-4.07c10.938-0.374,20.973-3.526,29.686-10.19c1.563-1.196,2.745-3.62,3.026-5.628
		c0.91-6.501,1.319-13.072,1.989-20.359c-11.138,0.907-21.814,1.777-32.037,2.609c-1.137-4.147-2.187-7.979-3.129-11.414
		c16.024-4.939,32.247-9.632,48.243-14.999c8.001-2.684,15.664-6.441,23.299-10.093c1.499-0.717,3.003-3.145,3.069-4.841
		c0.318-8.126,0.143-16.272,0.143-25.458c-10.022,0-20.061,0-30.35,0c0-4.715,0-8.425,0-13.338c0.045-0.005,1.562-0.377,3.049-0.28
		c2.917,0.189,5.899,1.253,8.712,0.88c17.126-2.268,29.303-10.992,34.866-27.829c1.297-3.925,2.363-7.927,3.677-12.373
		c1.129,0.22,3.121,0.092,3.429,0.75c2.472,5.284,7.748,4.529,11.926,5.426c16.216,3.479,32.543,4.7,49.04,1.408
		c1.964-0.392,5.665,1.102,6.449,2.735c4.422,9.211,11.102,15.499,20.608,18.32c7.116-2.784,9.14-8.024,9.051-15.297
		c-0.096-7.93,1.228-15.874,1.878-23.817c0.132-1.618,0.019-3.257,0.019-4.821c-13.381,0.982-26.246,1.927-39.067,2.868
		c-0.687-6.016,0.85-7.699,6.6-8.542c-1.264-0.921-2.814-2.051-5.16-3.762c11.805-1.79,22.044-2.843,32.042-5.011
		c8.401-1.822,17.161-3.769,24.581-7.822c7.15-3.906,13.215-10.166,19.002-16.125c12.123-12.485,19.446-27.631,22.751-44.711
		c0.118-0.612,0.015-1.266,0.015-2.395c-15.652,4.879-30.959,9.653-46.269,14.422c-2.06,0.642-4.235,1.027-6.169,1.932
		c-3.07,1.436-3.819-0.191-4.218-2.938c5.535-2.131,11.116-4.28,16.699-6.427c0.654,0.044,1.367,0.281,1.951,0.102
		c12.016-3.686,24.019-7.416,36.022-11.144c3.87-1.202,2.96-3.933,2.284-7.339c-2.569,1.295-4.687,2.458-6.882,3.454
		c-11.089,5.032-22.197,10.021-33.298,15.025c-3.257,0.551-6.502,1.18-9.772,1.636c-4.907,0.684-9.595,0.482-13.605-4.322
		c1.756-0.661,3.455-1.934,4.277-1.51c6.196,3.2,12.288,1.347,17.857-0.893c12.455-5.011,24.621-10.745,36.838-16.332
		c1.138-0.52,2.501-2.045,2.569-3.176c0.756-12.403,1.279-24.82,1.843-37.234c0.014-0.298-0.231-0.608-0.487-1.239
		c-7.881,1.342-15.842,2.697-23.74,4.042c-1.577-4.326-1.577-4.326,4.863-5.661c-5.893-0.53-10.886-0.98-15.88-1.43
		c-0.076-0.215-0.153-0.43-0.229-0.644c1.228-0.408,2.438-0.881,3.685-1.213c24.313-6.476,47.262-15.949,67.243-31.548
		c10.158-7.931,20.843-15.926,15.952-31.969c4.71,0,8.406,0,12.476,0c0,2.707,0,5.318,0,8.701c4.515-1.682,8.478-3.137,12.425-4.632
		c15.84-6.001,31.598-12.234,47.56-17.89c4.879-1.729,7.242-3.969,6.279-9.194c-0.268-1.454-0.098-2.989-0.129-4.487
		c4.333,0,8.667,0,13,0c-1.439,15.196,3.869,28.753,11.855,40.92c9.012,13.731,19.497,26.5,29.492,39.573
		c0.998,1.305,2.941,2.218,4.613,2.622c9.827,2.374,19.704,4.542,30.026,6.885c0,0.708,0,2.057,0,3.727
		c-18.855-2.01-36.57-6.989-53.865-13.366c-17.231-6.353-34.224-13.351-51.598-19.505c7.846,3.656,15.638,7.432,23.548,10.944
		c21.426,9.515,43.041,18.531,66.045,23.638c3.076,0.683,6.192,1.306,9.323,1.593c3.546,0.325,3.834,1.889,1.993,5.134
		c-8.089-1.643-16.319-3.315-25.796-5.24c0.739,6.187,1.627,11.815,2.027,17.479c0.375,5.303,0.498,10.656,0.229,15.961
		c-0.185,3.66,1.065,5.87,4.225,7.564c13.169,7.058,26.207,14.364,39.439,21.299c2.87,1.504,6.389,2.689,9.535,2.533
		c4.768-0.237,5.401,1.816,4.8,5.586c-0.155,0.972-0.171,1.966-0.335,3.991c-19.241-3.347-38.264-6.657-57.142-9.941
		c2.515,5.432,6.041,7.791,10.192,7.258c3.262,7.358,6.42,14.479,9.787,22.074c-2.777,0.199-4.237,0.304-5.646,0.405
		c-1.645,9.111-1.174,10.375,3.848,8.756c-2.955,11.259,4.396,14.672,12.846,16.757c18.695,4.613,37.457,8.953,56.193,13.4
		c1.74,0.413,3.487,0.797,5.133,1.171c0,2.947,0,5.55,0,8.652c-24.32-0.418-47.364-6.304-70.822-13.438
		c0.554,2.26,0.894,3.652,1.147,4.684c23.032,4.541,45.243,12.447,68.871,12.317c0.657-0.004,1.322,1.651,2.434,3.132
		c-11.993,3.283-22.846-1.206-35.271-2.125c0.557,5.041,1.439,9.919,1.548,14.814c0.126,5.643-0.16,11.331-0.78,16.943
		c-0.453,4.103,1.162,6.604,4.818,7.364c7.18,1.492,14.439,2.646,21.711,3.59c0.99,0.129,2.357-1.648,3.353-2.725
		c7.898-8.532,12.686-18.604,14.504-30.37c1.301,0.057,2.652-0.295,3.467,0.213c14.612,9.118,30.571,13.84,47.676,15.076
		c1.463,0.106,3.361,0.816,4.203,1.905c15.26,19.738,36.654,29.148,59.759,35.645c5.254,1.478,10.659,2.422,16.736,3.778
		c-0.509,3.55-0.841,7.223-1.715,10.763c-0.163,0.66-2.515,1.169-3.821,1.096c-8.3-0.463-16.59-1.108-25.687-1.751
		c1.052,4.463,0.125,8.167,2.315,12.93c2.596,5.647,6.583,6.915,10.742,8.654c22.829,9.548,45.726,18.947,68.764,27.976
		c5.161,2.023,10.962,2.476,16.506,3.434c4.14,0.716,4.166,0.56,3.965,6.097c-9.396,0-18.829,0-28.262,0
		c0.002,0.21,0.003,0.42,0.005,0.63c5.737,0.414,11.49,0.686,17.198,1.343c1.388,0.16,2.629,1.589,3.937,2.435
		c-0.275,0.4-0.55,0.801-0.825,1.201c-9.75,0-19.5,0-30.013,0c-0.55,10.758-1.113,21.76-1.698,33.194
		c8.292,0.523,15.863,1,23.431,1.476c1.13,3.364-0.365,4.168-3.294,4.103c-5.279-0.117-10.563-0.033-15.558-0.033
		c0,7.841-0.072,15.608,0.079,23.37c0.022,1.145,0.896,2.454,1.723,3.376c23.335,26.035,46.714,52.03,70.086,78.032
		c0,0.333,0,0.667,0,1c-1.496,0.996-2.932,2.75-4.496,2.872c-19.078,1.499-38.174,2.761-57.266,4.08
		c-22.415,1.549-44.833,3.041-67.243,4.656c-19.584,1.411-39.143,2.468-58.789,0.806c-10.6-0.897-21.328-1.837-31.902-1.189
		c-30.394,1.86-60.74,4.515-91.104,6.864c-38.492,2.978-76.986,5.935-115.474,8.973c-5.591,0.441-11.151,1.283-16.725,1.939
		c-3.333,0-6.667,0-10,0c-3.564-0.468-7.115-1.088-10.693-1.379c-23.865-1.942-47.734-3.829-71.604-5.704
		c-18.566-1.458-37.137-2.841-55.702-4.313c-23.206-1.841-46.404-3.781-69.612-5.602c-23.374-1.834-46.758-3.545-70.134-5.362
		c-28.516-2.217-57.031-4.448-85.54-6.76c-10.249-0.831-20.478-1.912-30.716-2.879C18.007,575.517,18.007,573.85,18.007,572.183z
		 M410.656,461.014c-28.38,2.355-56.681,4.653-84.973,7.063c-35.139,2.992-70.273,6.033-105.394,9.228
		c-2.051,0.187-4.398,1.528-5.856,3.051c-6.099,6.371-12.105,12.855-17.756,19.623c-3.394,4.065-7.156,5.619-12.479,5.572
		c-26.82-0.24-53.645-0.204-80.465,0.027c-2.824,0.024-6.269,1.247-8.348,3.114c-19.573,17.574-38.916,35.407-58.317,53.173
		c-3.965,3.631-7.896,7.297-12.733,11.771c129.423,10.157,257.545,20.213,386.321,30.319
		C410.656,555.962,410.656,508.581,410.656,461.014z M415.739,460.323c0,48.281,0,95.984,0,144.328
		c77.432-5.987,154.981-11.982,233.057-18.019c-1.655-5.833-3.166-11.238-4.722-16.63c-8.282-28.713-16.531-57.436-24.973-86.102
		c-0.53-1.8-2.413-4.262-3.974-4.514c-6.884-1.111-13.879-1.546-20.837-2.188c-26.511-2.448-53.028-4.826-79.533-7.335
		C482.136,466.775,449.523,463.582,415.739,460.323z M858.006,578.954c-0.763-1.134-1.067-1.725-1.496-2.205
		c-20.967-23.458-41.907-46.942-63.014-70.273c-1.328-1.468-3.951-2.374-6.02-2.467c-16.792-0.756-33.597-1.191-50.39-1.928
		c-1.721-0.076-3.819-1.082-4.998-2.349c-6.008-6.459-11.649-13.26-17.704-19.673c-1.522-1.612-4.034-3.01-6.194-3.179
		c-10.449-0.817-20.932-1.218-31.407-1.668c-1.536-0.066-3.094,0.393-4.802,0.631c0.487,1.891,0.76,3.181,1.151,4.433
		c10.784,34.562,21.695,69.086,32.235,103.722c1.394,4.58,3.37,5.295,7.665,4.97c27.377-2.07,54.776-3.861,82.167-5.735
		C815.918,581.816,836.638,580.41,858.006,578.954z M702.44,589.317c-11.892-38.158-23.56-75.6-35.218-113.005
		c-15.072,1.545-29.497,3.024-44.156,4.527c9.121,31.671,18.185,63.239,27.313,94.79c3.236,11.185,3.307,11.163,15.171,11.851
		c0.829,0.048,1.654,0.182,2.483,0.221C679.275,588.235,690.518,588.759,702.44,589.317z M587.557,349.972
		c-28.454-21.037-45.087-49.099-51.779-83.968c-17.481,29.258-43.809,46.492-66.949,56.958c-4.389,1.985-4.418,1.922-5.316-2.441
		c30.638-13.976,57.024-32.685,71.912-64.372c-8.972-4.612-9-4.57-14.612,2.448c-3.014,3.769-6.103,7.486-9.294,11.107
		c-11.133,12.634-22.588,24.938-36.8,34.263c-7.937,5.208-16.249,7.704-25.996,5.44c-10.975-2.549-22.179-4.111-33.565-6.153
		c0,4.029,0,7.81,0,11.753c1.472,0.48,2.875,0.967,4.295,1.397c63.556,19.26,128.166,33.755,194.01,42.534
		c6.977,0.93,14.297,1.458,21.19,0.409c15.575-2.37,30.982-5.844,46.495-8.876c-6.022-2.792-11.877-4.353-18.954-2.812
		c-9.694,2.112-19.782,2.341-29.63,3.842c-7.62,1.162-13.964-2.733-20.854-4.431c-0.794-0.196-1.194-1.992-1.413-2.388
		c4-3.792,7.446-7.086,10.932-10.337c0.574-0.536,1.851-1.332,1.914-1.257c4.809,5.688,7.025,0.326,9.87-2.27
		c0.324-0.296,0.636-0.606,0.893-0.851c-2.499-3.91-4.905-7.674-7.465-11.681c-4.655,10.632-10.918,19.794-20.284,26.303
		c-1.615-1.096-2.922-2.746-4.217-2.737c-8.884,0.061-16.858-2.761-24.913-6.511c4.322,3.716,8.645,7.432,13.159,11.313
		C589.308,347.762,588.517,348.76,587.557,349.972z M415.159,355.456c-0.307,6.934-0.78,13.226-0.686,19.51
		c0.017,1.142,2.212,2.986,3.64,3.259c17.289,3.307,34.586,6.606,51.953,9.467c39.175,6.454,78.165,14.267,117.947,16.391
		c9.746,0.52,19.478,1.307,29.721,2.005c0-4.511-0.269-8.668,0.081-12.771c0.305-3.566-1.38-4.585-4.427-5.066
		c-14.768-2.33-29.526-4.727-44.274-7.176c-32.941-5.47-65.872-10.991-98.81-16.478C452.12,361.568,433.932,358.567,415.159,355.456
		z M415.139,419.943c69.181,7.785,137.821,15.51,206.966,23.291c0-3.653,0-6.787,0-9.921c0-3.112,0-6.223,0-8.309
		c-69.437-8.117-138.142-16.149-206.966-24.195C415.139,407.037,415.139,413.304,415.139,419.943z M414.904,350.859
		c67.764,11.262,135.025,22.44,202.84,33.71c0-4.362-0.163-7.844,0.048-11.303c0.191-3.142-1.314-3.818-4.108-4.159
		c-13.199-1.612-26.532-2.678-39.522-5.363c-51.721-10.691-103.333-21.916-154.988-32.928c-1.489-0.318-3.014-0.471-4.27-0.662
		C414.904,337.434,414.904,344.032,414.904,350.859z M211.832,443.125c66.414-7.755,132.228-15.441,198.465-23.176
		c0-3.468,0-6.6,0-9.732c0-3.263,0-6.525,0-9.731c-1.024-0.068-1.373-0.172-1.68-0.101c-40.424,9.327-81.624,13.597-122.683,18.754
		c-22.278,2.798-44.602,5.228-66.89,7.943c-1.373,0.167-3.445,1.117-3.778,2.156C213.872,433.587,213.017,438.109,211.832,443.125z
		 M410.297,302.545c-1.156,0-1.496-0.059-1.809,0.008c-44.795,9.597-89.587,19.209-134.384,28.795
		c-3.243,0.694-7.243,0.201-9.679,1.949c-19.37,13.893-41.495,18.852-64.62,20.934c-1.71,0.154-3.386,0.678-5.078,1.03
		c1.196,1.093,2.172,1.183,3.127,1.08c15.199-1.647,30.409-3.206,45.59-5.008c39.097-4.639,78.074-10.183,116.393-19.347
		c14.964-3.578,29.49-8.978,44.241-13.466c4.738-1.442,7.286-4.029,6.284-9.354C409.972,307.103,410.297,304.906,410.297,302.545z
		 M409.901,350.906c0-7.115,0-13.872,0-20.833c-1.377,0.16-2.369,0.191-3.324,0.398c-27.27,5.905-54.458,12.218-81.824,17.642
		c-29.351,5.817-58.872,10.777-88.298,16.224c-1.339,0.248-3.467,1.55-3.532,2.48c-0.35,5.032-0.166,10.101-0.166,15.57
		c11.37-1.83,22.34-3.577,33.303-5.369c6.209-1.015,12.429-1.753,17.047-7.035c1.446-1.653,4.198-2.624,6.499-2.994
		c14.609-2.349,29.257-4.458,43.901-6.586c1.097-0.159,2.279,0.064,3.394,0.264c2.271,0.409,4.635,1.627,6.764,1.286
		C365.654,358.431,387.603,354.663,409.901,350.906z M414.92,272.476c0,8.39-0.138,15.875,0.143,23.345
		c0.044,1.171,1.839,3.038,3.082,3.284c11.41,2.257,22.841,4.467,34.346,6.143c3.752,0.547,8.133,0.426,11.551-1.005
		c15.083-6.314,25.927-18.046,36.642-29.33c-28.601-8.907-56.902-17.721-85.457-26.613c0,6.532,0,13.076,0,19.592
		c21.72,4.795,43.116,9.614,64.568,14.164c3.788,0.803,3.668,2.235,2.203,5.061C459.685,282.248,437.64,277.435,414.92,272.476z
		 M79.169,414.118c0.975-0.06,1.952-0.094,2.925-0.183c23.833-2.199,47.69-4.18,71.493-6.672
		c22.627-2.369,45.186-5.389,67.805-7.839c4.299-0.466,5.196-2.323,4.971-6.098c-0.186-3.116,0.111-6.277,0.388-9.401
		c0.522-5.888,1.184-11.764,1.847-18.228c-9.364,1.241-17.321,2.295-25.481,3.377c0.73,1.734,1.215,2.885,1.664,3.951
		c-10.302,7.996-12.623,8.507-28.859,11.225c-11.686,1.956-23.662,2.42-34.695,8.034C121.623,402.26,100.444,407.969,79.169,414.118
		z M495.754,463.484c-2.564-9.677-5.034-18.451-7.155-27.308c-0.717-2.995-2.138-3.838-5.065-4.132
		c-13.551-1.358-27.072-3.024-40.608-4.533c-9.161-1.022-18.33-1.968-27.189-2.915c0,10.725,0,20.93,0,31.285
		C442.548,458.429,468.634,460.907,495.754,463.484z M311.985,317.047c0-7.224,0-13.53,0-20.637
		c-13.755,3.59-26.261,6.815-38.726,10.197c-0.813,0.221-1.83,1.628-1.855,2.508c-0.164,5.961-0.085,11.929-0.085,18.14
		c1.305-0.199,2.447-0.314,3.562-0.552c14.783-3.159,29.565-6.321,44.342-9.51c29.07-6.273,58.143-12.534,87.186-18.928
		c1.421-0.313,3.637-1.793,3.682-2.808c0.318-7.288,0.17-14.597,0.17-22.396c-15.07,3.582-29.591,6.969-44.047,10.612
		c-0.987,0.249-2.039,2.382-2.12,3.697c-0.268,4.316,0.063,8.669-0.204,12.985c-0.08,1.288-1.136,3.35-2.134,3.622
		C345.738,308.333,329.656,312.455,311.985,317.047z M625.494,448.115c-26.1-2.936-51.991-5.848-78.37-8.815
		c2.536,9.458,4.844,18.424,7.443,27.305c0.328,1.119,2.119,2.437,3.349,2.57c16.542,1.782,33.101,3.405,49.664,4.987
		c5.875,0.561,11.772,0.906,17.914,1.368C625.494,466.023,625.494,457.258,625.494,448.115z M424.245,137.185
		c-0.892-0.067-1.259-0.2-1.544-0.101c-29,10.113-58.002,20.221-86.958,30.46c-1.1,0.389-2.422,2.018-2.487,3.136
		c-0.276,4.749-0.117,9.523-0.117,14.775c7.459-2.12,14.455-4.126,21.461-6.097c21.892-6.16,43.797-12.275,65.661-18.533
		c1.481-0.424,3.757-1.835,3.808-2.878C424.409,151.024,424.245,144.074,424.245,137.185z M339.512,391.989
		c11.507-1.716,22.373-3.072,33.132-5.015c11.092-2.002,22.098-4.499,33.094-6.987c1.548-0.35,3.993-1.82,4.047-2.872
		c0.361-7.061,0.188-14.149,0.188-21.617c-23.825,3.962-47.159,7.843-70.461,11.719
		C339.512,375.749,339.512,383.514,339.512,391.989z M428.913,136.452c0,6.321,0.29,11.812-0.096,17.255
		c-0.286,4.034,1.497,5.465,5.021,6.45c23.036,6.443,46.025,13.053,69.036,19.586c4.416,1.254,8.86,2.408,13.876,3.766
		c0-4.494-0.198-8.311,0.06-12.097c0.222-3.259-1.15-4.555-4.144-5.583c-19.952-6.853-39.828-13.924-59.729-20.925
		C445.147,142.165,437.357,139.423,428.913,136.452z M794.921,422.348c-0.011-0.268-0.022-0.537-0.033-0.805
		c-21.642-9.198-43.284-18.397-65.653-27.904c0,5.764,0,10.979,0,17.125c-9.747-0.735-18.819-1.464-27.897-2.092
		c-11.275-0.78-22.577-2.291-33.828-1.999c-13.781,0.358-27.509,2.442-41.286,3.411c-6.6,0.464-13.261,0.08-19.894,0.08
		c6.093,2.007,12.314,2.828,18.426,4.148c2.204,0.476,4.149,2.149,6.212,3.276c1.013,1.011,2.524,1.064,3.999,0.861
		c12.327-1.696,24.873-2.549,36.861-5.593c5.022-1.275,9.242-1.073,13.966-0.577c28.943,3.037,57.891,6.027,86.854,8.86
		C780.042,421.862,787.495,421.962,794.921,422.348z M334.754,162.417c1.177-0.094,1.873-0.009,2.466-0.217
		c28.175-9.894,56.347-19.798,84.487-29.794c1.017-0.361,2.404-1.63,2.432-2.513c0.206-6.583,0.112-13.176,0.112-20.585
		c-3.327,1.846-5.889,3.28-8.462,4.693c-24.443,13.423-50.349,23.055-77.315,29.991c-1.397,0.359-3.471,1.84-3.552,2.924
		C334.544,152.006,334.754,157.139,334.754,162.417z M429.119,131.726c28.779,10.111,57.047,20.041,85.717,30.113
		c0-5.88,0-11,0-14.936c-28.972-12.458-57.388-24.676-85.717-36.856C429.119,116.944,429.119,124.23,429.119,131.726z
		 M411.276,176.634c-21.498,6.724-42.104,13.168-62.711,19.613c-0.327,0.565-0.655,1.129-0.982,1.694
		c7.887,7.456,15.774,14.912,22.844,21.596c2.077-1.63,3.308-3.247,4.885-3.729c10.778-3.294,21.653-6.274,32.429-9.576
		c1.378-0.422,3.341-2.085,3.38-3.229C411.408,194.556,411.276,186.096,411.276,176.634z M677.191,470.836
		c18.538,0.825,36.995,1.647,55.696,2.479c0-8.786,0-16.88,0-25.534c-18.596-1.504-37.025-2.995-55.696-4.505
		C677.191,452.427,677.191,461.046,677.191,470.836z M410.281,249.339c-44.56,17.217-89.476,30.398-136.211,37.219
		c0,5.067,0,9.788,0,15.066c5.568-1.462,10.754-2.572,15.759-4.231c3.118-1.034,5.996-2.831,8.92-4.403
		c5.927-3.186,11.477-7.568,17.782-9.45c13.011-3.884,26.416-6.445,39.655-9.566c6.926-1.632,6.923-1.646,8.522,5.306
		c14.354-3.401,28.72-6.752,43.035-10.306c1.033-0.257,2.373-1.955,2.425-3.038C410.419,260.667,410.281,255.378,410.281,249.339z
		 M492.356,433.138c2.644,9.829,4.959,18.797,7.569,27.677c0.323,1.098,2.135,2.311,3.396,2.491
		c7.719,1.1,15.473,1.973,23.227,2.814c7.706,0.836,15.425,1.544,23.749,2.369c-1.87-6.947-4.07-13.067-5.075-19.376
		c-1.237-7.762-4.411-11.408-12.951-11.747C519.247,436.849,506.289,434.7,492.356,433.138z M334.481,433.318
		c-17.382,2.026-33.822,3.941-49.407,5.757c-2.231,9.86-4.348,19.221-6.538,28.903c1.792,0,2.927,0.101,4.04-0.016
		c11.401-1.196,22.789-2.53,34.201-3.618c9.974-0.951,9.987-0.833,12.44-10.415C330.92,447.269,332.619,440.607,334.481,433.318z
		 M254.852,335.042c-10.312-3.765-16.158-9.969-20.483-17.983c-0.65-1.204-3.46-1.826-5.224-1.74
		c-6.289,0.304-12.6,1.785-18.824,1.432c-11.541-0.653-23.027-2.284-34.791-3.535c4.126,6.2,7.811,13.065,15.854,15.8
		c0.74,0.252,2.019,0.64,2.041,1.023c0.258,4.506,4.118,4.362,6.867,5.063c7.703,1.964,15.548,3.371,23.256,5.318
		c2.054,0.519,3.818,2.187,5.715,3.328c-0.06,0.501-0.119,1.002-0.179,1.503C237.186,342.04,245.29,338.83,254.852,335.042z
		 M738.141,498.453c17.178,0,33.847,0,50.692,0c-0.362-8.265-0.728-16.63-1.098-25.075c-11.234-0.502-21.843-1.004-32.456-1.408
		c-1.054-0.04-2.202,0.362-3.182,0.823c-2.195,1.032-4.207,2.576-6.488,3.277c-3.066,0.942-6.316,1.285-9.619,1.911
		C736.712,484.85,737.368,491.098,738.141,498.453z M620.992,419.318c0.035-0.339,0.07-0.678,0.104-1.017
		c-11.998-1.515-23.996-3.019-35.993-4.546c-25.081-3.192-50.159-6.408-75.241-9.592c-25.577-3.247-51.151-6.513-76.739-9.669
		c-6.39-0.788-13.011-2.44-19.213-1.538c-22.184,3.225-44.167,7.836-66.352,11.056c-25.02,3.631-50.159,6.46-75.275,9.393
		c-29.081,3.396-58.194,6.513-87.288,9.801c-2.092,0.236-4.139,0.877-6.207,1.33c0.071,0.553,0.142,1.107,0.213,1.66
		c1.686,0,3.389,0.156,5.056-0.024c19.687-2.12,39.382-4.182,59.05-6.473c26.272-3.059,52.571-5.956,78.769-9.571
		c25.018-3.453,49.927-7.705,74.872-11.68c5.549-0.884,11.079-3.073,16.564-2.903c8.435,0.262,16.816,2.103,25.232,3.172
		c25.251,3.208,50.496,6.464,75.766,9.517c22.132,2.674,44.28,5.232,66.448,7.584C594.142,417.238,607.579,418.168,620.992,419.318z
		 M336.548,132.997c0.016,0.153,0.033,0.305,0.049,0.458c1.976-0.582,4.017-1.003,5.918-1.771
		c23.239-9.384,46.459-18.815,69.68-28.243c5.67-2.302,11.143-5.428,17.028-6.781c9.69-2.227,18.288-6.134,25.347-13.046
		c3.297-3.228,5.966-7.098,8.919-10.677c-0.337-0.332-0.674-0.665-1.011-0.997c-7.929,3.662-15.746,7.595-23.81,10.928
		c-16.438,6.794-32.919,13.579-51.273,13.014c-1.168-0.036-2.524,1.211-3.549,2.132c-7.398,6.647-14.272,13.987-22.22,19.882
		C353.825,123.683,344.951,128.022,336.548,132.997z M173.697,424.434c-21.38,2.092-42.451,4.154-63.443,6.208
		c0,5.267,0,9.83,0,14.496c32.986-3.018,65.593-6.001,98.501-9.012c0.606-2.608,1.181-5.085,1.933-8.319
		c-10.219,1.113-19.763,2.197-29.319,3.178C175.4,431.597,174.43,430.784,173.697,424.434z M672.487,443.804
		c-14.514,1.26-28.344,2.461-42.222,3.666c0,9.629,0,18.716,0,28.285c14.273-1.578,28.22-3.119,42.222-4.667
		C672.487,461.811,672.487,453.212,672.487,443.804z M500.539,398.442c0.025-0.222,0.049-0.445,0.074-0.667
		c-0.275-0.163-0.533-0.424-0.828-0.476c-26.334-4.655-52.665-9.326-79.014-13.893c-3.032-0.525-6.3-1.126-9.226-0.539
		c-6.976,1.4-13.721,4.072-20.725,5.199c-26.898,4.328-53.817,8.573-80.812,12.234c-27.341,3.708-54.776,6.722-82.186,9.906
		c-1.545,0.179-3.231-0.857-5.583-1.539c-7.548,2.598-16.152,5.56-24.714,8.507c1.028,0,2.187,0.11,3.32-0.016
		c18.676-2.076,37.363-4.067,56.019-6.307c28.719-3.448,57.476-6.66,86.106-10.749c23.333-3.333,46.502-7.813,69.751-11.747
		c1.448-0.245,2.979-0.37,4.427-0.194c20.459,2.495,40.91,5.057,61.364,7.592C485.853,396.665,493.197,397.547,500.539,398.442z
		 M331.587,463.123c13.183-1.004,25.721-1.959,38.544-2.936c2.111-10.608,4.158-20.892,6.306-31.686
		c-12.089,1.338-23.148,2.484-34.175,3.89c-1.259,0.161-3.048,1.575-3.378,2.749C336.336,444.215,334.087,453.374,331.587,463.123z
		 M416.168,177.965c0,9.278,0,18.509,0,28.114c6.488,1.808,13.001,3.624,19.514,5.44c6.271,1.748,9.137,0.592,12.478-5.078
		c0.626-1.061,1.156-2.179,1.533-2.896c10.458,3.805,18.059-2.746,27.272-5.406C456.175,191.24,436.295,184.644,416.168,177.965z
		 M418.995,173.472c1.825,0.737,3.304,1.435,4.847,1.943c17.957,5.907,35.919,11.798,53.894,17.65
		c1.903,0.62,4.342,1.926,5.771,1.266c6.036-2.788,11.783-6.199,18.552-9.881c-1.992-0.738-2.728-1.066-3.495-1.286
		c-19.623-5.624-39.42-10.716-58.799-17.081c-9.106-2.991-15.624-2.518-20.306,6.341
		C419.384,172.568,419.326,172.723,418.995,173.472z M744.499,428.231c-21.467-2.191-42.713-4.36-64.134-6.547
		c0,5.857,0,11.565,0,17.578c21.61,0.383,42.681,5.328,64.134,3.068C744.499,437.11,744.499,432.834,744.499,428.231z
		 M410.433,456.026c0-10.82,0-21.003,0-31.503c-9.108,0.996-17.531,1.822-25.915,2.932c-1.296,0.171-3.243,1.45-3.494,2.538
		c-2.221,9.634-4.126,19.341-6.274,29.748C387.175,458.448,398.853,457.232,410.433,456.026z M530.048,249.084
		c0.351-0.597,0.702-1.194,1.053-1.792c-1.449-0.903-2.786-2.201-4.364-2.646c-12.946-3.657-25.939-7.147-38.913-10.706
		c-7.302-2.003-14.595-4.042-22.559-6.249c0,5.971,0.179,11.108-0.067,16.225c-0.147,3.056,0.94,4.561,3.879,5.154
		c8.136,1.641,16.33,3.088,24.352,5.182c9.627,2.513,18.964,2.741,26.938-3.762C523.709,247.764,526.423,247.428,530.048,249.084z
		 M285.828,383.159c-2.223,0.377-3.849,0.865-5.481,0.888c-3.986,0.057-8.868,3.893-11.493-2.553
		c-0.139-0.342-1.575-0.343-2.357-0.21c-11.75,2.003-23.491,4.054-35.282,6.103c0,6.093,0,11.843,0,18.178
		c18.427-2.186,36.484-4.329,54.613-6.48C285.828,393.568,285.828,388.618,285.828,383.159z M675.519,418.283
		c-16.419,2.019-32.466,3.993-48.483,5.963c0,6.022,0,12.285,0,19.015c16.328-1.432,32.306-2.833,48.483-4.252
		C675.519,431.665,675.519,424.719,675.519,418.283z M676.146,382.177c0,7.084,0,13.46,0,19.843
		c16.413,1.396,32.405,2.755,48.532,4.127c0-6.674,0-12.888,0-19.451C708.382,385.178,692.396,383.69,676.146,382.177z
		 M202.301,462.683c-1.46,0.077-2.095,0.093-2.727,0.146c-17.89,1.49-35.769,3.142-53.675,4.422
		c-11.607,0.829-23.249,1.251-34.883,1.557c-3.246,0.085-4.964,0.99-5.41,4.272c-0.218,1.601-0.892,3.14-1.403,4.855
		c0.971,0.14,1.625,0.34,2.269,0.311c30.068-1.316,60.136-2.629,90.198-4.078c1.123-0.054,2.757-1.228,3.159-2.265
		C200.889,469.164,201.401,466.214,202.301,462.683z M248.021,443.35c-2.135,9.228-4.222,18.254-6.492,28.065
		c10.53-0.844,20.437-1.589,30.326-2.52c0.8-0.075,1.923-1.317,2.146-2.205c2.176-8.66,4.191-17.359,6.474-26.98
		C269.388,440.953,259.045,442.114,248.021,443.35z M722.562,358.164c0.222-0.553,0.444-1.107,0.666-1.66
		c-0.727-0.348-1.436-0.74-2.183-1.039c-16.46-6.582-31.25-15.563-42.674-29.462c-0.744-0.905-2.06-1.576-3.23-1.856
		c-10.301-2.47-20.655-4.721-30.934-7.276c-3.394-0.843-6.615-2.381-11.072-4.03c7.36,11.612,16.415,19.13,27.634,24.149
		c4.634,2.073,9.134,4.559,13.934,6.127C690.598,348.312,706.601,353.174,722.562,358.164z M670.885,382.345
		c-16.644,2.316-32.688,4.548-48.518,6.751c0,6.123,0,11.52,0,17.022c16.396-1.482,32.405-2.928,48.518-4.384
		C670.885,395.108,670.885,388.994,670.885,382.345z M204.123,473.731c10.359-0.543,19.975-0.981,29.576-1.634
		c1.177-0.08,3.047-1.108,3.291-2.039c2.209-8.426,4.127-16.929,6.284-26.059c-10.621,1.206-20.5,2.263-30.348,3.552
		c-0.938,0.123-2.147,1.562-2.448,2.613C208.294,457.812,206.31,465.518,204.123,473.731z M506.719,268.94
		c0.017-0.542,0.033-1.084,0.05-1.626c-2.674-0.582-5.401-0.985-8.012-1.773c-27.491-8.293-54.949-16.693-82.465-24.903
		c-2.332-0.696-5.243-0.941-7.492-0.202c-25.701,8.454-51.065,18.051-77.046,25.503c-25.169,7.22-50.952,12.299-75.654,18.127
		c-0.48-0.115,0.004,0.133,0.46,0.089c3.476-0.336,6.956-0.658,10.417-1.117c39.364-5.215,77.589-15.132,115.064-28.073
		c9.106-3.144,18.317-6.178,26.991-10.291c4.049-1.92,7.083-1.662,10.82-0.34c11.116,3.933,22.198,8.001,33.468,11.447
		c15.244,4.662,30.627,8.876,46.009,13.069C501.628,269.48,504.247,268.94,506.719,268.94z M290.526,397.678
		c0.557,0.241,0.873,0.513,1.151,0.479c13.66-1.693,27.321-3.379,40.963-5.206c0.851-0.114,2.205-1.331,2.221-2.058
		c0.164-7.521,0.101-15.046,0.101-23.766c-2.502,1.798-4.074,2.678-5.339,3.881c-4.985,4.741-10.804,7.306-17.691,8.061
		c-7.18,0.787-14.289,2.214-21.406,3.358C290.526,387.922,290.526,392.856,290.526,397.678z M316.179,311.329
		c13.895-3.621,27.497-7.138,41.069-10.764c0.924-0.247,2.311-1.288,2.331-1.992c0.182-6.349,0.106-12.706,0.106-17.985
		c-14.729,4.637-29.005,9.131-43.506,13.695C316.179,299.571,316.179,305.187,316.179,311.329z M163.984,501.046
		c1.823-6.938,3.598-13.698,5.144-19.582c-12.384,0-24.169-0.035-35.953,0.062c-0.994,0.008-2.618,0.679-2.871,1.414
		c-2.021,5.867-3.781,11.823-5.732,18.106C138.022,501.046,150.657,501.046,163.984,501.046z M752.15,467.196
		c11.057,0.52,21.587,1.015,32.195,1.513c0-8.183,0-15.708,0-23.449c-10.898-0.921-21.409-1.81-32.195-2.722
		C752.15,450.866,752.15,458.77,752.15,467.196z M530.592,240.911c0.239-0.404,0.477-0.809,0.716-1.213
		c-1.199-1.046-2.299-2.24-3.612-3.115c-8.254-5.495-15.639-11.818-20.145-20.899c-6.654-13.411-10.012-14.09-21.705-4.298
		c-1.143,0.957-2.196,2.174-3.517,2.739c-4.037,1.725-8.194,3.171-12.287,4.768c-1.599,0.624-3.154,1.362-4.729,2.048
		c1.396,1.083,2.635,2.7,4.213,3.163c10.648,3.127,21.362,6.034,32.067,8.966C511.25,235.714,520.925,238.299,530.592,240.911z
		 M622.239,384.552c16.057-2.224,31.624-4.38,47.2-6.538c0-4.915,0-9.329,0-13.866c-15.841,2.3-31.356,4.552-47.2,6.853
		C622.239,374.866,622.239,379.291,622.239,384.552z M674.22,361.919c0,5.57,0,10.329,0,15.602
		c15.774,1.451,31.367,2.886,47.205,4.344c0-4.277,0-7.832,0-11.146C705.635,367.775,690.205,364.899,674.22,361.919z
		 M470.292,69.601c-7.76,15.277-19.222,25.411-35.855,30.582c2.781,1.427,4.387,2.251,5.653,2.9c2.122-1.201,3.897-2.274,5.733-3.23
		c4.121-2.144,8.543-3.838,12.339-6.447c3.917-2.692,7.063-5.348,8.995,1.6c0.123,0.443,0.978,0.683,1.426,0.975
		c4.189-4.125,4.503-3.686,7.411,1.083c4.811,7.889,10.272,15.384,15.504,23.014c1.142,1.665,2.474,3.2,3.718,4.794
		c-0.25,0.279-0.5,0.559-0.75,0.838c3.726,1.208,7.451,2.415,11.177,3.623C491.528,110.983,477.644,92.862,470.292,69.601z
		 M189.854,362.069c-13.237,2.364-25.931,4.631-38.486,6.873c0,5.106,0,9.657,0,14.696c13.132-2.185,25.811-4.294,38.486-6.402
		C189.854,371.918,189.854,367.291,189.854,362.069z M334.113,206.472c-5.365,24.453-17.877,43.379-36.874,58.23
		c2.704-0.264,5.877-0.095,7.312-1.592c8.28-8.636,16.143-17.671,24.163-26.557c1.327-1.47,2.726-2.875,4.092-4.31
		c1.159,1.814,2.305,3.636,3.492,5.431c0.153,0.232,0.517,0.324,1.914,1.148c1.223-3.337,2.367-6.458,3.613-9.856
		c-1.314-0.145-1.607-0.259-1.85-0.191c-2.682,0.749-5.401,0.73-5.857-2.548c-0.247-1.781,1.143-3.789,1.794-5.694
		c1.968,0.77,4.07,1.317,5.859,2.387c1.221,0.73,1.895,2.313,3.001,3.305c6.173,5.539,12.154,11.341,18.727,16.365
		c2.993,2.287,7.192,3.747,11.428,0.214C358.031,234.472,344.552,222.911,334.113,206.472z M384.366,330.951
		c0.003,0.138,0.006,0.276,0.009,0.413c8.321-2.077,16.635-4.182,24.97-6.202c1.367-0.331,2.911-0.668,4.227-0.366
		c28.639,6.563,57.129,13.849,85.913,19.69c35.141,7.131,70.512,13.133,105.816,19.443c5.435,0.971,11.043,0.971,17.394,1.486
		c-27.579-4.693-54.337-8.792-80.908-13.871c-42.58-8.14-84.54-18.91-126.049-31.426c-1.292-0.389-2.955-0.513-4.168-0.044
		C402.463,323.598,393.425,327.303,384.366,330.951z M414.298,210.337c0,5.411-0.083,10.197,0.069,14.975
		c0.031,0.983,0.695,2.447,1.483,2.828c9.04,4.368,18.16,8.57,28.186,13.248c0-6.797,0.212-12.233-0.191-17.622
		c-0.075-0.997-2.698-2.66-4.035-2.559c-6.283,0.475-6.269,0.656-6.507-5.649C427.189,213.878,421.015,212.182,414.298,210.337z
		 M336.392,200.562c7.924,16.426,27.522,33.892,44.61,39.928c4.137,1.461,7.306-0.263,9.864-2.135
		c-5.772-3.461-12.176-6.226-17.227-10.565c-9.197-7.901-17.931-16.423-26.164-25.327
		C343.859,198.552,341.055,197.24,336.392,200.562z M313.224,261.462c0.217,0.468,0.434,0.936,0.652,1.404
		c16.219-4.649,32.438-9.298,49.231-14.112c-6.71-5.478-12.202-9.961-17.699-14.448c-4.154,9.277-7.823,11.032-13.701,6.419
		c-2.977,3.537-5.882,7.149-8.963,10.604C319.662,254.789,316.404,258.091,313.224,261.462z M451.67,209.733
		c9.204,5.668,23.075,7.211,31.022-1.634c2.211-2.461,4.65-4.838,7.361-6.706c5.764-3.969,11.525-3.036,15.874,2.412
		c1.642,2.057,3.083,4.381,4.118,6.797c3.387,7.904,8.902,13.99,15.685,19.04c1.85,1.377,3.886,2.505,5.836,3.748
		c-0.737-3.919-1.489-8.409-3.934-9.704c-7.68-4.07-11.964-10.923-16.633-17.525c-3.617-5.115-6.779-10.552-10.015-15.643
		C485.015,198.331,470.489,208.575,451.67,209.733z M373.367,220.939c-0.067,0.453-0.134,0.906-0.201,1.36
		c4.57,2.95,9.078,6,13.722,8.826c8.012,4.876,14.955-0.022,22.075-2.735c0.585-0.223,0.993-1.632,1.01-2.5
		c0.095-4.948,0.046-9.899,0.046-15.467C397.434,214.034,385.401,217.486,373.367,220.939z M168.571,501.189
		c6.758,0,12.876,0.116,18.983-0.097c1.236-0.043,3.095-1.052,3.532-2.092c2.665-6.347,5.003-12.832,7.534-19.493
		c-8.162,0-14.937-0.087-21.704,0.094c-1.005,0.027-2.582,1.131-2.866,2.053C172.119,487.938,170.464,494.306,168.571,501.189z
		 M504.802,184.411c-0.338,0.517-0.677,1.033-1.015,1.55c3.171,5.231,6.221,10.541,9.595,15.637c0.865,1.307,2.634,2.411,4.19,2.804
		c14.398,3.633,28.84,7.089,43.27,10.597c0.136-0.463,0.271-0.925,0.407-1.388c-0.67-0.426-1.323-0.884-2.014-1.273
		c-12.7-7.158-25.301-14.503-38.159-21.365C515.945,188.235,510.244,186.567,504.802,184.411z M125.783,481.861
		c-7.52,0.379-14.27,0.693-21.014,1.099c-0.74,0.044-1.796,0.414-2.116,0.971c-3.154,5.495-6.183,11.062-9.507,17.078
		c9.467,0,17.892,0,26.582,0C121.682,494.828,123.605,488.748,125.783,481.861z M112.347,425.916
		c20.622-2.008,41.035-3.996,61.33-5.973c0-2.525,0-4.56,0-6.579c-19.218,1.935-38.005,4.053-56.841,5.575
		C111.795,419.346,110.841,421.083,112.347,425.916z M331.778,190.587c0.185,0.742,0.37,1.484,0.554,2.226
		c5.601-0.504,11.457-0.129,16.759-1.668c20.87-6.056,41.589-12.637,62.293-19.246c2.481-0.792,4.527-2.946,6.774-4.468
		c-0.236-0.381-0.471-0.762-0.707-1.143C388.894,174.388,360.336,182.488,331.778,190.587z M194.187,344.259
		c-1.679,1.214-2.892,2.697-4.386,3.076c-10.755,2.725-21.504,5.543-32.383,7.68c-6.658,1.308-7.467,1.896-5.621,9.302
		c12.752-2.3,25.517-4.602,37.926-6.84c-0.78-2.589-1.28-4.248-1.78-5.907c1.679-0.434,3.334-1.067,5.04-1.261
		c3.91-0.446,7.845-0.678,11.769-0.996c-0.024-0.283-0.049-0.566-0.073-0.849C201.011,346.994,197.342,345.524,194.187,344.259z
		 M575.739,293.314c-9.761-2.366-19.527-4.734-30.262-7.336c2.384,5.694,4.405,10.52,6.013,14.359
		c8.509,2.035,16.154,3.864,24.25,5.8C575.739,301.787,575.739,297.854,575.739,293.314z M192.202,337.64
		c-4.524-3.746-9.413-4.828-15.177-2.013c-2.566,1.253-5.809,1.255-8.772,1.525c-4.787,0.436-9.906-0.317-14.324,1.138
		c-6.613,2.177-12.739,5.833-19.358,8.996C154.49,347.11,174.036,345.863,192.202,337.64z M280.723,379.461
		c11.753-1.923,23.581-3.492,35.218-5.961c4.098-0.869,7.729-3.941,11.573-6.007c-0.241-0.509-0.482-1.018-0.723-1.528
		c-10.958,1.611-21.876,3.632-32.888,4.673C287.77,371.218,284.22,374.811,280.723,379.461z M461.637,96.909
		c-3.795,2.068-7.625,4.156-12.357,6.735c10.896,4.265,20.798,8.14,30.7,12.016c-0.761-3.184-2.111-5.402-3.389-7.66
		c-2.248-3.973-3.503-8.907-9.9-8.163C465.291,100,463.654,98.136,461.637,96.909z M281.677,352.443
		c-0.052-0.454-0.103-0.909-0.155-1.363c-1.618,0.141-3.243,0.223-4.852,0.432c-11.852,1.536-23.688,3.202-35.554,4.622
		c-14.677,1.757-29.384,3.265-44.056,5.061c-1.094,0.134-2.01,1.716-3.009,2.624c0.349,0.394,0.698,0.788,1.047,1.183
		c3.633-0.273,7.302-0.31,10.894-0.856C231.229,360.304,256.45,356.357,281.677,352.443z M577.042,328.32
		c0-5.815,0.048-10.662-0.061-15.506c-0.013-0.592-0.765-1.53-1.346-1.693c-6.69-1.872-13.414-3.625-20.947-5.628
		C559.047,316.621,568.668,320.778,577.042,328.32z M423.121,104.531c-30.577,12.296-60.203,24.209-88.661,35.653
		C364.63,133.108,394.43,121.645,423.121,104.531z M737.736,472.674c2.518-0.279,4.576-0.175,6.365-0.819
		c1.245-0.448,2.986-1.892,3.023-2.944c0.261-7.441,0.139-14.895,0.139-22.598c-2.672,0.335-4.866,0.333-6.853,0.971
		c-1.073,0.345-2.529,1.764-2.557,2.734C737.64,457.462,737.736,464.914,737.736,472.674z M749.154,437.812
		c12.445,1.015,24.415,1.991,36.644,2.989c0-2.264,0-4.024,0-6.134c-12.303-0.923-24.417-1.831-36.644-2.748
		C749.154,434.22,749.154,435.69,749.154,437.812z M462.969,65.057c-22.265,8.448-44.529,16.895-66.794,25.343
		C420.507,87.345,442.057,76.905,462.969,65.057z M460.754,246.026c0-5.905,0-11.774,0-17.661
		c-8.88,1.077-11.936,3.089-12.019,7.846C448.607,243.558,449.571,244.36,460.754,246.026z M539.933,268.452
		c2.038,1.592,3.39,3.41,5.106,3.869c13.939,3.732,27.929,7.282,41.946,10.712c3.209,0.785,6.58,0.93,9.884,1.302
		c3.193,0.36,6.397,0.633,10.334,1.015C584.669,279.69,562.986,274.243,539.933,268.452z M718.295,477.505
		c5.124,5.745,9.528,10.683,14.744,16.531c-0.445-5.396-0.566-9.363-1.215-13.241c-0.204-1.219-1.72-2.992-2.819-3.14
		C725.836,477.23,722.573,477.505,718.295,477.505z M638.358,363.396c0.132,0.436,0.265,0.872,0.397,1.308
		c10.396-1.975,20.755-4.187,31.205-5.811c4.255-0.661,8.766-0.486,13.056,0.093c6.08,0.82,12.063,2.365,18.087,3.6
		c-5.848-2.659-11.901-4.278-17.986-5.769c-2.048-0.502-4.283-1.264-6.251-0.906C664.002,358.253,651.188,360.87,638.358,363.396z
		 M448.962,226.997c3.685-1.32,7.107-2.372,10.35-3.823c0.849-0.38,1.523-1.98,1.566-3.049c0.03-0.752-0.993-1.97-1.803-2.259
		c-3.204-1.141-6.509-1.998-10.113-3.06C448.962,218.967,448.962,222.7,448.962,226.997z M635.314,338.531
		c-3.445,0.94-6.602,2.921-8.84,2.168c-4.118-1.385-5.456,0.554-7.517,3.616c7.918,0,15.236,0,23.883,0
		C639.31,341.602,637.092,339.897,635.314,338.531z M181.431,330.024c-0.152-0.385-0.304-0.771-0.456-1.156
		c-2.062-0.837-4.592-1.182-6.09-2.61c-3.41-3.25-5.862-0.782-8.174,1.024c-1.711,1.337-2.77,3.51-4.119,5.311
		c0.183,0.38,0.366,0.76,0.549,1.14C169.237,332.497,175.334,331.26,181.431,330.024z M196.521,339.098
		c8.78,5.97,20.167,8.336,27.593,6.224C214.685,343.195,205.603,341.146,196.521,339.098z M397.646,239.728
		c7.871-2.808,15.362-8.186,24.16-2.151C414.027,231.214,403.699,232.247,397.646,239.728z M490.158,258.704
		c0.003,0.141,0.005,0.282,0.008,0.423c5.829,1.199,11.624,2.656,17.508,3.452c1.996,0.27,4.217-1.131,7.021-1.975
		C505.707,259.907,497.933,259.306,490.158,258.704z M201.086,488.066c3.318-3.661,5.818-6.419,8.782-9.689
		C202.101,478.048,201.931,478.239,201.086,488.066z M188.558,411.53c0.014,0.515,0.029,1.029,0.043,1.544
		c6.69-1.193,13.379-2.385,20.069-3.578c-0.07-0.398-0.139-0.795-0.209-1.193C201.827,409.379,195.192,410.455,188.558,411.53z
		 M192.965,417.895c0.063-0.141,0.127-0.281,0.19-0.422c-3.745-0.425-7.482-0.965-11.239-1.199c-0.992-0.062-2.043,0.82-3.067,1.268
		c0.957,0.549,1.944,1.612,2.866,1.559C185.476,418.884,189.217,418.327,192.965,417.895z"/>
	<path fill="#FFFFFF" d="M422.007,609.183c5.574-0.656,11.134-1.497,16.725-1.939c38.487-3.038,76.981-5.995,115.474-8.973
		c30.364-2.349,60.71-5.004,91.104-6.864c10.574-0.647,21.302,0.293,31.902,1.189c19.646,1.662,39.206,0.605,58.789-0.806
		c22.41-1.615,44.828-3.107,67.243-4.656c19.092-1.319,38.188-2.581,57.266-4.08c1.564-0.123,3.001-1.877,4.496-2.872
		c0,9.667,0,19.333,0,29C717.34,609.183,569.674,609.183,422.007,609.183z"/>
	<path fill="#FFFFFF" d="M18.007,577.183c10.238,0.967,20.467,2.049,30.716,2.879c28.509,2.311,57.024,4.542,85.54,6.76
		c23.376,1.818,46.76,3.529,70.134,5.362c23.208,1.821,46.406,3.761,69.612,5.602c18.565,1.473,37.136,2.855,55.702,4.313
		c23.87,1.875,47.74,3.762,71.604,5.704c3.578,0.291,7.129,0.911,10.693,1.379c-131.333,0-262.667,0-394,0
		C18.007,598.492,18.007,587.837,18.007,577.183z"/>
	<path fill="#FFFFFF" d="M410.656,461.014c0,47.568,0,94.948,0,142.941c-128.776-10.107-256.898-20.162-386.321-30.319
		c4.837-4.474,8.769-8.141,12.733-11.771c19.401-17.766,38.743-35.599,58.317-53.173c2.079-1.867,5.524-3.09,8.348-3.114
		c26.821-0.231,53.645-0.267,80.465-0.027c5.323,0.048,9.086-1.507,12.479-5.572c5.651-6.768,11.657-13.251,17.756-19.623
		c1.458-1.523,3.805-2.864,5.856-3.051c35.12-3.196,70.255-6.236,105.394-9.228C353.975,465.667,382.276,463.368,410.656,461.014z"
		/>
	<path fill="#FFFFFF" d="M415.739,460.323c33.784,3.26,66.397,6.452,99.02,9.539c26.505,2.509,53.022,4.887,79.533,7.335
		c6.958,0.643,13.953,1.077,20.837,2.188c1.561,0.252,3.444,2.714,3.974,4.514c8.441,28.666,16.69,57.389,24.973,86.102
		c1.556,5.393,3.067,10.798,4.722,16.63c-78.076,6.037-155.626,12.032-233.057,18.019
		C415.739,556.307,415.739,508.604,415.739,460.323z"/>
	<path fill="#FFFFFF" d="M858.006,578.954c-21.368,1.455-42.088,2.861-62.808,4.279c-27.392,1.875-54.79,3.665-82.167,5.735
		c-4.295,0.325-6.271-0.39-7.665-4.97c-10.539-34.637-21.451-69.16-32.235-103.722c-0.391-1.253-0.664-2.542-1.151-4.433
		c1.708-0.238,3.267-0.697,4.802-0.631c10.475,0.45,20.958,0.851,31.407,1.668c2.161,0.169,4.672,1.566,6.194,3.179
		c6.055,6.412,11.696,13.214,17.704,19.673c1.179,1.267,3.277,2.274,4.998,2.349c16.793,0.737,33.599,1.172,50.39,1.928
		c2.069,0.093,4.692,0.999,6.02,2.467c21.108,23.331,42.047,46.815,63.014,70.273C856.939,577.229,857.244,577.82,858.006,578.954z"
		/>
	<path fill="#FFFFFF" d="M702.44,589.317c-11.922-0.558-23.165-1.082-34.407-1.616c-0.829-0.039-1.654-0.173-2.483-0.221
		c-11.864-0.688-11.935-0.666-15.171-11.851c-9.128-31.55-18.192-63.119-27.313-94.79c14.659-1.503,29.083-2.982,44.156-4.527
		C678.88,513.718,690.548,551.16,702.44,589.317z"/>
	<path fill="#FFFFFF" d="M587.557,349.972c0.96-1.211,1.751-2.21,2.631-3.32c-4.515-3.881-8.837-7.597-13.159-11.313
		c8.055,3.751,16.029,6.572,24.913,6.511c1.295-0.009,2.602,1.641,4.217,2.737c9.366-6.509,15.629-15.671,20.284-26.303
		c2.561,4.007,4.966,7.771,7.465,11.681c-0.257,0.245-0.569,0.555-0.893,0.851c-2.845,2.597-5.061,7.958-9.87,2.27
		c-0.064-0.075-1.34,0.721-1.914,1.257c-3.486,3.252-6.933,6.546-10.932,10.337c0.219,0.396,0.619,2.192,1.413,2.388
		c6.89,1.698,13.233,5.593,20.854,4.431c9.848-1.502,19.936-1.73,29.63-3.842c7.077-1.542,12.932,0.02,18.954,2.812
		c-15.513,3.032-30.92,6.506-46.495,8.876c-6.893,1.049-14.213,0.521-21.19-0.409c-65.845-8.779-130.454-23.274-194.01-42.534
		c-1.42-0.43-2.823-0.917-4.295-1.397c0-3.943,0-7.724,0-11.753c11.386,2.042,22.59,3.604,33.565,6.153
		c9.748,2.264,18.059-0.232,25.996-5.44c14.212-9.326,25.667-21.63,36.8-34.263c3.191-3.621,6.279-7.337,9.294-11.107
		c5.612-7.018,5.64-7.06,14.612-2.448c-14.888,31.686-41.274,50.396-71.912,64.372c0.898,4.363,0.927,4.427,5.316,2.441
		c23.14-10.466,49.468-27.7,66.949-56.958C542.47,300.872,559.103,328.935,587.557,349.972z M575.248,346.378
		c0.396-0.453,0.793-0.906,1.19-1.359c-0.767-1.176-1.375-3.217-2.326-3.391c-7.873-1.441-13.24-6.637-17.263-12.681
		c-6.983-10.491-12.982-21.634-19.528-32.422c-0.925-1.524-2.607-2.588-3.655-3.593c-2.541,4.006-4.349,6.856-6.048,9.536
		c-4.993-2.896-0.452-9.644-6.755-10.952c-10.789,19.805-28.559,29.472-49.685,35.021
		C505.867,333.151,540.557,339.765,575.248,346.378z M532.609,288.646c-1.986-1.9-3.148-3.012-4.31-4.124
		c-1.088,1.189-2.989,2.344-3.04,3.576c-0.052,1.271,1.483,3.317,2.727,3.695C528.896,292.069,530.459,290.194,532.609,288.646z
		 M632.299,328.452c-2.137-1.409-3.356-2.815-4.576-2.817c-0.893-0.001-2.688,2.113-2.481,2.808c0.35,1.175,1.857,2.489,3.087,2.749
		C629.171,331.37,630.37,329.857,632.299,328.452z"/>
	<path fill="#FFFFFF" d="M415.159,355.456c18.773,3.111,36.961,6.112,55.145,9.141c32.938,5.487,65.87,11.008,98.81,16.478
		c14.749,2.449,29.506,4.846,44.274,7.176c3.046,0.481,4.732,1.5,4.427,5.066c-0.351,4.104-0.081,8.26-0.081,12.771
		c-10.242-0.698-19.974-1.485-29.721-2.005c-39.782-2.124-78.772-9.937-117.947-16.391c-17.367-2.861-34.664-6.16-51.953-9.467
		c-1.428-0.273-3.623-2.118-3.64-3.259C414.379,368.682,414.852,362.39,415.159,355.456z"/>
	<path fill="#FFFFFF" d="M415.139,419.943c0-6.638,0-12.906,0-19.133c68.824,8.046,137.529,16.077,206.966,24.195
		c0,2.086,0,5.197,0,8.309c0,3.134,0,6.268,0,9.921C552.96,435.452,484.32,427.728,415.139,419.943z"/>
	<path fill="#FFFFFF" d="M414.904,350.859c0-6.827,0-13.425,0-20.707c1.256,0.192,2.781,0.345,4.27,0.662
		c51.655,11.013,103.266,22.237,154.988,32.928c12.99,2.685,26.323,3.751,39.522,5.363c2.794,0.341,4.299,1.017,4.108,4.159
		c-0.211,3.459-0.048,6.942-0.048,11.303C549.929,373.299,482.668,362.121,414.904,350.859z"/>
	<path fill="#FFFFFF" d="M211.832,443.125c1.184-5.016,2.04-9.538,3.434-13.887c0.333-1.039,2.405-1.988,3.778-2.156
		c22.288-2.715,44.612-5.145,66.89-7.943c41.059-5.157,82.259-9.426,122.683-18.754c0.308-0.071,0.656,0.032,1.68,0.101
		c0,3.206,0,6.468,0,9.731c0,3.132,0,6.263,0,9.732C344.06,427.684,278.246,435.37,211.832,443.125z"/>
	<path fill="#FFFFFF" d="M410.297,302.545c0,2.361-0.325,4.558,0.063,6.621c1.002,5.325-1.546,7.913-6.284,9.354
		c-14.751,4.488-29.277,9.887-44.241,13.466c-38.319,9.163-77.296,14.707-116.393,19.347c-15.181,1.801-30.391,3.36-45.59,5.008
		c-0.955,0.103-1.931,0.013-3.127-1.08c1.692-0.352,3.368-0.876,5.078-1.03c23.126-2.082,45.25-7.04,64.62-20.934
		c2.437-1.748,6.436-1.255,9.679-1.949c44.798-9.586,89.589-19.198,134.384-28.795C408.801,302.486,409.141,302.545,410.297,302.545
		z"/>
	<path fill="#FFFFFF" d="M409.901,350.906c-22.298,3.757-44.247,7.524-66.235,11.047c-2.129,0.341-4.494-0.877-6.764-1.286
		c-1.115-0.201-2.297-0.424-3.394-0.264c-14.644,2.128-29.292,4.237-43.901,6.586c-2.301,0.37-5.054,1.341-6.499,2.994
		c-4.619,5.282-10.838,6.02-17.047,7.035c-10.963,1.792-21.933,3.538-33.303,5.369c0-5.47-0.184-10.539,0.166-15.57
		c0.065-0.929,2.193-2.232,3.532-2.48c29.426-5.448,58.947-10.407,88.298-16.224c27.365-5.423,54.554-11.737,81.824-17.642
		c0.954-0.207,1.946-0.238,3.324-0.398C409.901,337.034,409.901,343.791,409.901,350.906z"/>
	<path fill="#FFFFFF" d="M414.92,272.476c22.72,4.959,44.765,9.772,67.078,14.642c1.465-2.827,1.585-4.258-2.203-5.061
		c-21.453-4.55-42.848-9.369-64.568-14.164c0-6.516,0-13.061,0-19.592c28.555,8.893,56.856,17.706,85.457,26.613
		c-10.715,11.284-21.559,23.016-36.642,29.33c-3.417,1.431-7.798,1.552-11.551,1.005c-11.505-1.676-22.937-3.887-34.346-6.143
		c-1.243-0.246-3.038-2.113-3.082-3.284C414.782,288.351,414.92,280.866,414.92,272.476z"/>
	<path fill="#FFFFFF" d="M79.169,414.118c21.275-6.149,42.454-11.859,62.058-21.834c11.033-5.614,23.009-6.078,34.695-8.034
		c16.236-2.718,18.557-3.229,28.859-11.225c-0.449-1.067-0.934-2.217-1.664-3.951c8.16-1.081,16.117-2.136,25.481-3.377
		c-0.663,6.463-1.325,12.339-1.847,18.228c-0.277,3.124-0.574,6.285-0.388,9.401c0.225,3.776-0.672,5.633-4.971,6.098
		c-22.619,2.45-45.178,5.47-67.805,7.839c-23.803,2.492-47.659,4.473-71.493,6.672C81.122,414.025,80.144,414.059,79.169,414.118z"
		/>
	<path fill="#FFFFFF" d="M495.754,463.484c-27.12-2.577-53.206-5.056-80.017-7.604c0-10.355,0-20.56,0-31.285
		c8.859,0.947,18.028,1.894,27.189,2.915c13.537,1.51,27.057,3.176,40.608,4.533c2.927,0.293,4.348,1.137,5.065,4.132
		C490.721,445.034,493.19,453.808,495.754,463.484z"/>
	<path fill="#FFFFFF" d="M311.985,317.047c17.671-4.592,33.753-8.714,49.771-13.069c0.999-0.272,2.055-2.334,2.134-3.622
		c0.267-4.316-0.064-8.669,0.204-12.985c0.082-1.315,1.133-3.448,2.12-3.697c14.456-3.643,28.977-7.03,44.047-10.612
		c0,7.799,0.148,15.107-0.17,22.396c-0.044,1.015-2.261,2.495-3.682,2.808c-29.044,6.393-58.116,12.655-87.186,18.928
		c-14.777,3.188-29.559,6.351-44.342,9.51c-1.115,0.238-2.257,0.353-3.562,0.552c0-6.211-0.078-12.179,0.085-18.14
		c0.024-0.88,1.041-2.288,1.855-2.508c12.464-3.382,24.971-6.607,38.726-10.197C311.985,303.517,311.985,309.823,311.985,317.047z"
		/>
	<path fill="#FFFFFF" d="M625.494,448.115c0,9.143,0,17.908,0,27.415c-6.142-0.463-12.039-0.807-17.914-1.368
		c-16.563-1.582-33.122-3.205-49.664-4.987c-1.231-0.133-3.022-1.451-3.349-2.57c-2.599-8.881-4.907-17.847-7.443-27.305
		C573.503,442.267,599.394,445.179,625.494,448.115z"/>
	<path fill="#FFFFFF" d="M424.245,137.185c0,6.889,0.165,13.838-0.177,20.763c-0.051,1.043-2.328,2.454-3.808,2.878
		c-21.864,6.258-43.769,12.373-65.661,18.533c-7.006,1.971-14.002,3.977-21.461,6.097c0-5.252-0.159-10.026,0.117-14.775
		c0.065-1.118,1.388-2.747,2.487-3.136c28.956-10.239,57.958-20.347,86.958-30.46C422.986,136.985,423.352,137.118,424.245,137.185z
		"/>
	<path fill="#FFFFFF" d="M339.512,391.989c0-8.475,0-16.24,0-24.772c23.302-3.876,46.637-7.756,70.461-11.719
		c0,7.468,0.173,14.556-0.188,21.617c-0.054,1.053-2.499,2.522-4.047,2.872c-10.996,2.488-22.002,4.985-33.094,6.987
		C361.885,388.917,351.019,390.273,339.512,391.989z"/>
	<path fill="#FFFFFF" d="M428.913,136.452c8.443,2.971,16.233,5.713,24.024,8.454c19.901,7.001,39.777,14.072,59.729,20.925
		c2.995,1.029,4.366,2.324,4.144,5.583c-0.258,3.786-0.06,7.603-0.06,12.097c-5.016-1.358-9.46-2.513-13.876-3.766
		c-23.011-6.533-46-13.143-69.036-19.586c-3.523-0.985-5.306-2.416-5.021-6.45C429.203,148.264,428.913,142.773,428.913,136.452z"/>
	<path fill="#FFFFFF" d="M794.921,422.348c-7.426-0.386-14.88-0.486-22.273-1.209c-28.963-2.833-57.911-5.824-86.854-8.86
		c-4.724-0.496-8.943-0.698-13.966,0.577c-11.988,3.044-24.535,3.897-36.861,5.593c-1.475,0.203-2.986,0.15-3.999-0.861
		c-2.063-1.127-4.009-2.8-6.212-3.276c-6.113-1.32-12.333-2.141-18.426-4.148c6.633,0,13.293,0.384,19.894-0.08
		c13.777-0.969,27.505-3.053,41.286-3.411c11.252-0.293,22.553,1.219,33.828,1.999c9.079,0.628,18.15,1.357,27.897,2.092
		c0-6.146,0-11.36,0-17.125c22.37,9.508,44.011,18.706,65.653,27.904C794.9,421.811,794.91,422.079,794.921,422.348z"/>
	<path fill="#FFFFFF" d="M334.754,162.417c0-5.278-0.21-10.411,0.168-15.501c0.08-1.083,2.155-2.564,3.552-2.924
		c26.966-6.937,52.872-16.569,77.315-29.991c2.573-1.413,5.135-2.847,8.462-4.693c0,7.409,0.094,14.001-0.112,20.585
		c-0.028,0.883-1.415,2.151-2.432,2.513c-28.139,9.996-56.311,19.9-84.487,29.794C336.627,162.408,335.931,162.323,334.754,162.417z
		"/>
	<path fill="#FFFFFF" d="M429.119,131.726c0-7.496,0-14.782,0-21.679c28.329,12.181,56.744,24.399,85.717,36.856
		c0,3.936,0,9.055,0,14.936C486.165,151.768,457.898,141.837,429.119,131.726z"/>
	<path fill="#FFFFFF" d="M411.276,176.634c0,9.461,0.132,17.922-0.156,26.368c-0.039,1.144-2.002,2.807-3.38,3.229
		c-10.776,3.302-21.65,6.282-32.429,9.576c-1.577,0.482-2.807,2.099-4.885,3.729c-7.07-6.684-14.957-14.14-22.844-21.596
		c0.327-0.565,0.655-1.129,0.982-1.694C369.172,189.803,389.778,183.358,411.276,176.634z"/>
	<path fill="#FFFFFF" d="M677.191,470.836c0-9.79,0-18.409,0-27.56c18.671,1.51,37.1,3.001,55.696,4.505c0,8.654,0,16.748,0,25.534
		C714.186,472.483,695.729,471.661,677.191,470.836z"/>
	<path fill="#FFFFFF" d="M410.281,249.339c0,6.038,0.138,11.328-0.114,16.599c-0.052,1.083-1.391,2.781-2.425,3.038
		c-14.316,3.554-28.682,6.905-43.035,10.306c-1.599-6.953-1.596-6.938-8.522-5.306c-13.239,3.12-26.644,5.682-39.655,9.566
		c-6.305,1.882-11.855,6.264-17.782,9.45c-2.923,1.571-5.802,3.369-8.92,4.403c-5.004,1.659-10.191,2.769-15.759,4.231
		c0-5.278,0-9.999,0-15.066C320.804,279.737,365.72,266.556,410.281,249.339z"/>
	<path fill="#FFFFFF" d="M492.356,433.138c13.933,1.562,26.891,3.711,39.915,4.227c8.541,0.339,11.714,3.985,12.951,11.747
		c1.005,6.31,3.205,12.429,5.075,19.376c-8.324-0.825-16.043-1.533-23.749-2.369c-7.754-0.841-15.507-1.714-23.227-2.814
		c-1.262-0.18-3.073-1.393-3.396-2.491C497.315,451.935,495,442.968,492.356,433.138z"/>
	<path fill="#FFFFFF" d="M334.481,433.318c-1.862,7.29-3.561,13.951-5.265,20.611c-2.453,9.582-2.466,9.464-12.44,10.415
		c-11.411,1.088-22.799,2.422-34.201,3.618c-1.113,0.117-2.248,0.016-4.04,0.016c2.19-9.681,4.308-19.042,6.538-28.903
		C300.659,437.259,317.099,435.343,334.481,433.318z"/>
	<path fill="#FFFFFF" d="M254.852,335.042c-9.562,3.788-17.665,6.998-25.769,10.208c0.06-0.501,0.119-1.002,0.179-1.503
		c-1.897-1.141-3.661-2.809-5.715-3.328c-7.708-1.947-15.553-3.353-23.256-5.318c-2.749-0.701-6.609-0.557-6.867-5.063
		c-0.022-0.383-1.3-0.771-2.041-1.023c-8.044-2.734-11.728-9.6-15.854-15.8c11.764,1.251,23.25,2.882,34.791,3.535
		c6.224,0.352,12.535-1.128,18.824-1.432c1.764-0.085,4.574,0.536,5.224,1.74C238.693,325.074,244.54,331.277,254.852,335.042z"/>
	<path fill="#FFFFFF" d="M738.141,498.453c-0.772-7.355-1.429-13.602-2.15-20.473c3.303-0.625,6.553-0.969,9.619-1.911
		c2.281-0.701,4.292-2.245,6.488-3.277c0.98-0.461,2.128-0.863,3.182-0.823c10.613,0.404,21.222,0.906,32.456,1.408
		c0.37,8.445,0.736,16.811,1.098,25.075C771.988,498.453,755.319,498.453,738.141,498.453z"/>
	<path fill="#FFFFFF" d="M620.992,419.318c-13.413-1.15-26.849-2.08-40.234-3.5c-22.168-2.352-44.316-4.91-66.448-7.584
		c-25.27-3.053-50.515-6.308-75.766-9.517c-8.417-1.069-16.797-2.91-25.232-3.172c-5.484-0.17-11.014,2.019-16.564,2.903
		c-24.945,3.975-49.854,8.227-74.872,11.68c-26.198,3.615-52.497,6.512-78.769,9.571c-19.668,2.29-39.362,4.353-59.05,6.473
		c-1.667,0.18-3.37,0.024-5.056,0.024c-0.071-0.553-0.142-1.107-0.213-1.66c2.068-0.453,4.115-1.094,6.207-1.33
		c29.094-3.288,58.207-6.405,87.288-9.801c25.116-2.933,50.256-5.762,75.275-9.393c22.185-3.22,44.168-7.831,66.352-11.056
		c6.201-0.902,12.822,0.75,19.213,1.538c25.588,3.156,51.163,6.422,76.739,9.669c25.082,3.184,50.16,6.4,75.241,9.592
		c11.996,1.527,23.995,3.032,35.993,4.546C621.061,418.64,621.026,418.979,620.992,419.318z"/>
	<path fill="#FFFFFF" d="M336.548,132.997c8.403-4.974,17.277-9.314,25.079-15.1c7.949-5.895,14.822-13.235,22.22-19.882
		c1.025-0.921,2.381-2.168,3.549-2.132c18.354,0.564,34.835-6.22,51.273-13.014c8.065-3.333,15.881-7.266,23.81-10.928
		c0.337,0.332,0.674,0.665,1.011,0.997c-2.954,3.579-5.623,7.448-8.919,10.677c-7.059,6.912-15.657,10.819-25.347,13.046
		c-5.884,1.352-11.358,4.479-17.028,6.781c-23.221,9.428-46.441,18.859-69.68,28.243c-1.901,0.768-3.942,1.189-5.918,1.771
		C336.58,133.302,336.564,133.149,336.548,132.997z"/>
	<path fill="#FFFFFF" d="M173.697,424.434c0.733,6.349,1.703,7.163,7.672,6.55c9.555-0.98,19.1-2.065,29.319-3.178
		c-0.751,3.234-1.327,5.711-1.933,8.319c-32.908,3.011-65.515,5.994-98.501,9.012c0-4.666,0-9.23,0-14.496
		C131.246,428.588,152.317,426.526,173.697,424.434z"/>
	<path fill="#FFFFFF" d="M672.487,443.804c0,9.408,0,18.007,0,27.284c-14.002,1.548-27.949,3.089-42.222,4.667
		c0-9.569,0-18.656,0-28.285C644.143,446.265,657.973,445.064,672.487,443.804z"/>
	<path fill="#FFFFFF" d="M500.539,398.442c-7.342-0.895-14.686-1.777-22.027-2.687c-20.454-2.535-40.905-5.097-61.364-7.592
		c-1.449-0.177-2.979-0.052-4.427,0.194c-23.248,3.933-46.417,8.414-69.751,11.747c-28.63,4.089-57.387,7.301-86.106,10.749
		c-18.657,2.24-37.343,4.231-56.019,6.307c-1.133,0.126-2.292,0.016-3.32,0.016c8.562-2.947,17.166-5.909,24.714-8.507
		c2.351,0.683,4.038,1.719,5.583,1.539c27.41-3.184,54.845-6.198,82.186-9.906c26.995-3.661,53.914-7.906,80.812-12.234
		c7.004-1.127,13.748-3.799,20.725-5.199c2.927-0.587,6.194,0.013,9.226,0.539c26.349,4.566,52.681,9.237,79.014,13.893
		c0.295,0.052,0.553,0.313,0.828,0.476C500.588,397.998,500.564,398.22,500.539,398.442z"/>
	<path fill="#FFFFFF" d="M331.587,463.123c2.5-9.749,4.749-18.908,7.297-27.982c0.33-1.174,2.119-2.589,3.378-2.749
		c11.027-1.406,22.086-2.552,34.175-3.89c-2.148,10.794-4.195,21.079-6.306,31.686C357.308,461.164,344.77,462.119,331.587,463.123z
		"/>
	<path fill="#FFFFFF" d="M416.168,177.965c20.128,6.679,40.007,13.275,60.798,20.174c-9.213,2.659-16.814,9.211-27.272,5.406
		c-0.377,0.717-0.907,1.835-1.533,2.896c-3.342,5.67-6.208,6.826-12.478,5.078c-6.513-1.816-13.026-3.631-19.514-5.44
		C416.168,196.474,416.168,187.243,416.168,177.965z"/>
	<path fill="#FFFFFF" d="M418.995,173.472c0.331-0.749,0.389-0.904,0.465-1.049c4.682-8.859,11.2-9.331,20.306-6.341
		c19.379,6.365,39.176,11.457,58.799,17.081c0.767,0.22,1.503,0.548,3.495,1.286c-6.769,3.682-12.517,7.093-18.552,9.881
		c-1.429,0.66-3.868-0.646-5.771-1.266c-17.975-5.852-35.937-11.743-53.894-17.65C422.299,174.907,420.819,174.209,418.995,173.472z
		"/>
	<path fill="#FFFFFF" d="M744.499,428.231c0,4.604,0,8.88,0,14.099c-21.453,2.26-42.524-2.684-64.134-3.068
		c0-6.013,0-11.721,0-17.578C701.786,423.87,723.032,426.039,744.499,428.231z"/>
	<path fill="#FFFFFF" d="M410.433,456.026c-11.579,1.206-23.258,2.422-35.684,3.715c2.148-10.407,4.053-20.114,6.274-29.748
		c0.251-1.088,2.199-2.367,3.494-2.538c8.385-1.109,16.807-1.936,25.915-2.932C410.433,435.023,410.433,445.206,410.433,456.026z"/>
	<path fill="#FFFFFF" d="M530.048,249.084c-3.624-1.656-6.338-1.319-9.681,1.406c-7.974,6.503-17.311,6.275-26.938,3.762
		c-8.022-2.094-16.215-3.541-24.352-5.182c-2.939-0.593-4.026-2.098-3.879-5.154c0.246-5.117,0.067-10.254,0.067-16.225
		c7.964,2.207,15.256,4.246,22.559,6.249c12.974,3.559,25.967,7.049,38.913,10.706c1.578,0.446,2.915,1.743,4.364,2.646
		C530.75,247.889,530.399,248.487,530.048,249.084z"/>
	<path fill="#FFFFFF" d="M285.828,383.159c0,5.459,0,10.41,0,15.926c-18.129,2.151-36.187,4.293-54.613,6.48
		c0-6.335,0-12.085,0-18.178c11.791-2.048,23.532-4.1,35.282-6.103c0.782-0.133,2.217-0.133,2.357,0.21
		c2.625,6.447,7.507,2.611,11.493,2.553C281.979,384.023,283.605,383.536,285.828,383.159z"/>
	<path fill="#FFFFFF" d="M675.519,418.283c0,6.436,0,13.383,0,20.726c-16.177,1.419-32.155,2.82-48.483,4.252
		c0-6.73,0-12.994,0-19.015C643.053,422.276,659.1,420.302,675.519,418.283z"/>
	<path fill="#FFFFFF" d="M676.146,382.177c16.25,1.513,32.236,3.001,48.532,4.518c0,6.563,0,12.777,0,19.451
		c-16.127-1.371-32.119-2.731-48.532-4.127C676.146,395.638,676.146,389.261,676.146,382.177z"/>
	<path fill="#FFFFFF" d="M202.301,462.683c-0.9,3.532-1.412,6.482-2.472,9.22c-0.401,1.037-2.036,2.211-3.159,2.265
		c-30.062,1.449-60.13,2.762-90.198,4.078c-0.644,0.028-1.298-0.172-2.269-0.311c0.511-1.715,1.185-3.254,1.403-4.855
		c0.447-3.282,2.164-4.187,5.41-4.272c11.634-0.306,23.276-0.727,34.883-1.557c17.906-1.279,35.784-2.931,53.675-4.422
		C200.206,462.776,200.841,462.759,202.301,462.683z"/>
	<path fill="#FFFFFF" d="M248.021,443.35c11.024-1.237,21.367-2.397,32.454-3.641c-2.283,9.621-4.298,18.321-6.474,26.98
		c-0.223,0.888-1.346,2.129-2.146,2.205c-9.889,0.932-19.796,1.677-30.326,2.52C243.798,461.605,245.886,452.579,248.021,443.35z"/>
	<path fill="#FFFFFF" d="M722.562,358.164c-15.961-4.99-31.964-9.852-47.858-15.047c-4.8-1.569-9.3-4.054-13.934-6.127
		c-11.219-5.019-20.274-12.537-27.634-24.149c4.458,1.649,7.679,3.186,11.072,4.03c10.279,2.554,20.633,4.806,30.934,7.276
		c1.17,0.28,2.486,0.951,3.23,1.856c11.424,13.899,26.213,22.88,42.674,29.462c0.747,0.299,1.456,0.691,2.183,1.039
		C723.007,357.057,722.784,357.611,722.562,358.164z"/>
	<path fill="#FFFFFF" d="M670.885,382.345c0,6.649,0,12.763,0,19.388c-16.113,1.456-32.122,2.903-48.518,4.384
		c0-5.502,0-10.899,0-17.022C638.197,386.893,654.241,384.661,670.885,382.345z"/>
	<path fill="#FFFFFF" d="M204.123,473.731c2.187-8.213,4.171-15.919,6.356-23.568c0.3-1.052,1.51-2.49,2.448-2.613
		c9.848-1.288,19.727-2.345,30.348-3.552c-2.157,9.13-4.075,17.633-6.284,26.059c-0.244,0.931-2.114,1.959-3.291,2.039
		C224.098,472.75,214.482,473.188,204.123,473.731z"/>
	<path fill="#FFFFFF" d="M506.719,268.94c-2.472,0-5.091,0.54-7.392-0.087c-15.382-4.192-30.765-8.407-46.009-13.069
		c-11.269-3.447-22.352-7.514-33.468-11.447c-3.737-1.322-6.771-1.58-10.82,0.34c-8.675,4.113-17.885,7.147-26.991,10.291
		c-37.475,12.941-75.7,22.858-115.064,28.073c-3.461,0.459-6.941,0.78-10.417,1.117c-0.455,0.044-0.939-0.204-0.46-0.089
		c24.703-5.828,50.486-10.907,75.654-18.127c25.981-7.453,51.344-17.05,77.046-25.503c2.249-0.74,5.16-0.494,7.492,0.202
		c27.516,8.21,54.974,16.61,82.465,24.903c2.611,0.788,5.339,1.191,8.012,1.773C506.752,267.856,506.735,268.398,506.719,268.94z"/>
	<path fill="#FFFFFF" d="M290.526,397.678c0-4.823,0-9.756,0-15.252c7.117-1.144,14.227-2.571,21.406-3.358
		c6.887-0.755,12.706-3.32,17.691-8.061c1.265-1.203,2.837-2.083,5.339-3.881c0,8.72,0.063,16.246-0.101,23.766
		c-0.016,0.728-1.371,1.944-2.221,2.058c-13.642,1.826-27.303,3.513-40.963,5.206C291.398,398.191,291.082,397.919,290.526,397.678z
		"/>
	<path fill="#FFFFFF" d="M316.179,311.329c0-6.142,0-11.758,0-17.046c14.501-4.565,28.777-9.059,43.506-13.695
		c0,5.279,0.076,11.636-0.106,17.985c-0.02,0.705-1.407,1.745-2.331,1.992C343.675,304.191,330.074,307.708,316.179,311.329z"/>
	<path fill="#FFFFFF" d="M163.984,501.046c-13.328,0-25.962,0-39.412,0c1.95-6.283,3.711-12.24,5.732-18.106
		c0.253-0.735,1.877-1.405,2.871-1.414c11.784-0.097,23.569-0.062,35.953-0.062C167.583,487.348,165.807,494.108,163.984,501.046z"
		/>
	<path fill="#FFFFFF" d="M752.15,467.196c0-8.427,0-16.331,0-24.658c10.786,0.912,21.297,1.8,32.195,2.722
		c0,7.741,0,15.266,0,23.449C773.737,468.211,763.207,467.716,752.15,467.196z"/>
	<path fill="#FFFFFF" d="M530.592,240.911c-9.667-2.611-19.342-5.197-29-7.841c-10.705-2.931-21.419-5.838-32.067-8.966
		c-1.578-0.463-2.817-2.08-4.213-3.163c1.575-0.686,3.13-1.424,4.729-2.048c4.093-1.597,8.25-3.043,12.287-4.768
		c1.322-0.565,2.374-1.782,3.517-2.739c11.693-9.792,15.051-9.113,21.705,4.298c4.506,9.081,11.891,15.404,20.145,20.899
		c1.313,0.874,2.414,2.068,3.612,3.115C531.07,240.102,530.831,240.506,530.592,240.911z M502.795,228.709
		c0.835-7.817,0.149-8.792-5.47-9.404c-2.878-0.314-3.305,1.411-3.289,3.656C494.085,229.457,499.446,226.766,502.795,228.709z
		 M484.983,215.794c0,3.286,0,5.535,0,8.031c2.685,0.571,5.221,1.109,8.046,1.71c0-2.85,0-4.94,0-7.038
		C490.433,217.625,488.067,216.83,484.983,215.794z M507.896,221.734c-1.748,0.752-3.747,1.094-3.861,1.76
		c-0.319,1.866-0.05,3.916,0.441,5.773c0.105,0.397,2.124,0.288,3.42,0.43C507.896,226.998,507.896,225.012,507.896,221.734z"/>
	<path fill="#FFFFFF" d="M622.239,384.552c0-5.262,0-9.687,0-13.551c15.844-2.3,31.36-4.553,47.2-6.853c0,4.536,0,8.95,0,13.866
		C653.863,380.172,638.296,382.328,622.239,384.552z"/>
	<path fill="#FFFFFF" d="M674.22,361.919c15.986,2.98,31.415,5.856,47.205,8.799c0,3.315,0,6.87,0,11.146
		c-15.838-1.457-31.431-2.892-47.205-4.344C674.22,372.248,674.22,367.489,674.22,361.919z"/>
	<path fill="#FFFFFF" d="M470.292,69.601c7.352,23.261,21.236,41.382,35.35,59.734c-3.726-1.208-7.451-2.415-11.177-3.623
		c0.25-0.279,0.5-0.559,0.75-0.838c-1.244-1.595-2.576-3.129-3.718-4.794c-5.232-7.63-10.693-15.125-15.504-23.014
		c-2.909-4.769-3.222-5.208-7.411-1.083c-0.448-0.292-1.303-0.532-1.426-0.975c-1.931-6.948-5.078-4.292-8.995-1.6
		c-3.796,2.609-8.217,4.303-12.339,6.447c-1.836,0.955-3.611,2.029-5.733,3.23c-1.265-0.649-2.872-1.473-5.653-2.9
		C451.07,95.013,462.532,84.879,470.292,69.601z M474.859,86.719c-2.55-1.923-4.222-4.114-5.501-3.905
		c-1.507,0.247-3.718,2.588-3.697,3.993c0.021,1.433,2.249,3.748,3.757,3.964C470.705,90.955,472.34,88.71,474.859,86.719z"/>
	<path fill="#FFFFFF" d="M189.854,362.069c0,5.222,0,9.849,0,15.167c-12.675,2.108-25.354,4.218-38.486,6.402
		c0-5.039,0-9.59,0-14.696C163.923,366.7,176.617,364.433,189.854,362.069z"/>
	<path fill="#FFFFFF" d="M334.113,206.472c10.438,16.439,23.918,28,40.814,36.331c-4.236,3.533-8.435,2.073-11.428-0.214
		c-6.573-5.023-12.554-10.826-18.727-16.365c-1.106-0.992-1.78-2.575-3.001-3.305c-1.789-1.07-3.891-1.617-5.859-2.387
		c-0.652,1.906-2.042,3.914-1.794,5.694c0.455,3.279,3.175,3.298,5.857,2.548c0.243-0.068,0.537,0.047,1.85,0.191
		c-1.245,3.398-2.389,6.519-3.613,9.856c-1.398-0.824-1.761-0.917-1.914-1.148c-1.187-1.795-2.333-3.617-3.492-5.431
		c-1.366,1.435-2.765,2.84-4.092,4.31c-8.019,8.886-15.883,17.921-24.163,26.557c-1.435,1.497-4.608,1.328-7.312,1.592
		C316.236,249.851,328.748,230.925,334.113,206.472z"/>
	<path fill="#FFFFFF" d="M384.366,330.951c9.059-3.648,18.097-7.353,27.204-10.877c1.213-0.469,2.876-0.345,4.168,0.044
		c41.509,12.516,83.469,23.286,126.049,31.426c26.571,5.079,53.329,9.178,80.908,13.871c-6.351-0.516-11.959-0.515-17.394-1.486
		c-35.304-6.309-70.676-12.311-105.816-19.443c-28.784-5.841-57.274-13.127-85.913-19.69c-1.316-0.302-2.86,0.035-4.227,0.366
		c-8.335,2.02-16.649,4.125-24.97,6.202C384.372,331.227,384.369,331.089,384.366,330.951z"/>
	<path fill="#FFFFFF" d="M414.298,210.337c6.717,1.845,12.891,3.542,19.006,5.221c0.237,6.305,0.224,6.124,6.507,5.649
		c1.337-0.101,3.96,1.562,4.035,2.559c0.403,5.39,0.191,10.825,0.191,17.622c-10.026-4.679-19.147-8.88-28.186-13.248
		c-0.788-0.381-1.452-1.845-1.483-2.828C414.215,220.534,414.298,215.748,414.298,210.337z"/>
	<path fill="#FFFFFF" d="M336.392,200.562c4.663-3.321,7.467-2.01,11.083,1.901c8.233,8.905,16.967,17.426,26.164,25.327
		c5.051,4.339,11.455,7.104,17.227,10.565c-2.558,1.872-5.728,3.596-9.864,2.135C363.914,234.454,344.316,216.987,336.392,200.562z"
		/>
	<path fill="#FFFFFF" d="M313.224,261.462c3.181-3.371,6.438-6.674,9.521-10.132c3.08-3.456,5.986-7.067,8.963-10.604
		c5.877,4.613,9.546,2.859,13.701-6.419c5.496,4.487,10.989,8.97,17.699,14.448c-16.793,4.814-33.012,9.463-49.231,14.112
		C313.658,262.398,313.441,261.93,313.224,261.462z"/>
	<path fill="#FFFFFF" d="M451.67,209.733c18.819-1.158,33.345-11.402,49.314-19.216c3.236,5.092,6.398,10.528,10.015,15.643
		c4.669,6.602,8.953,13.455,16.633,17.525c2.445,1.296,3.197,5.786,3.934,9.704c-1.95-1.242-3.986-2.37-5.836-3.748
		c-6.783-5.05-12.297-11.136-15.685-19.04c-1.035-2.416-2.476-4.74-4.118-6.797c-4.349-5.447-10.109-6.381-15.874-2.412
		c-2.712,1.867-5.15,4.244-7.361,6.706C474.746,216.944,460.874,215.401,451.67,209.733z"/>
	<path fill="#FFFFFF" d="M373.367,220.939c12.033-3.453,24.067-6.905,36.651-10.516c0,5.568,0.049,10.519-0.046,15.467
		c-0.017,0.867-0.425,2.277-1.01,2.5c-7.119,2.714-14.063,7.612-22.075,2.735c-4.644-2.827-9.153-5.877-13.722-8.826
		C373.233,221.845,373.3,221.392,373.367,220.939z"/>
	<path fill="#FFFFFF" d="M168.571,501.189c1.893-6.883,3.548-13.25,5.478-19.534c0.283-0.922,1.861-2.027,2.866-2.053
		c6.768-0.181,13.543-0.094,21.704-0.094c-2.531,6.66-4.868,13.145-7.534,19.493c-0.437,1.04-2.296,2.049-3.532,2.092
		C181.447,501.305,175.329,501.189,168.571,501.189z"/>
	<path fill="#FFFFFF" d="M504.802,184.411c5.442,2.155,11.143,3.824,16.274,6.562c12.858,6.862,25.459,14.206,38.159,21.365
		c0.691,0.389,1.343,0.847,2.014,1.273c-0.136,0.463-0.271,0.925-0.407,1.388c-14.429-3.508-28.872-6.964-43.27-10.597
		c-1.557-0.393-3.325-1.497-4.19-2.804c-3.374-5.096-6.424-10.406-9.595-15.637C504.125,185.444,504.464,184.928,504.802,184.411z"
		/>
	<path fill="#FFFFFF" d="M125.783,481.861c-2.178,6.887-4.101,12.967-6.055,19.147c-8.69,0-17.115,0-26.582,0
		c3.324-6.016,6.353-11.583,9.507-17.078c0.32-0.557,1.377-0.926,2.116-0.971C111.513,482.554,118.263,482.24,125.783,481.861z"/>
	<path fill="#FFFFFF" d="M112.347,425.916c-1.506-4.833-0.552-6.57,4.489-6.977c18.836-1.522,37.623-3.639,56.841-5.575
		c0,2.019,0,4.054,0,6.579C153.381,421.92,132.969,423.908,112.347,425.916z"/>
	<path fill="#FFFFFF" d="M331.778,190.587c28.558-8.1,57.116-16.199,85.674-24.299c0.236,0.381,0.471,0.762,0.707,1.143
		c-2.248,1.522-4.294,3.676-6.774,4.468c-20.704,6.609-41.424,13.191-62.293,19.246c-5.301,1.538-11.157,1.163-16.759,1.668
		C332.148,192.071,331.963,191.329,331.778,190.587z"/>
	<path fill="#FFFFFF" d="M194.187,344.259c3.155,1.265,6.824,2.735,10.492,4.205c0.024,0.283,0.049,0.566,0.073,0.849
		c-3.925,0.319-7.859,0.55-11.769,0.996c-1.706,0.194-3.362,0.827-5.04,1.261c0.5,1.659,1,3.317,1.78,5.907
		c-12.409,2.238-25.174,4.54-37.926,6.84c-1.846-7.406-1.037-7.995,5.621-9.302c10.879-2.137,21.628-4.956,32.383-7.68
		C191.295,346.957,192.508,345.474,194.187,344.259z"/>
	<path fill="#FFFFFF" d="M575.739,293.314c0,4.539,0,8.472,0,12.823c-8.096-1.936-15.741-3.765-24.25-5.8
		c-1.608-3.839-3.629-8.665-6.013-14.359C556.212,288.581,565.978,290.948,575.739,293.314z"/>
	<path fill="#FFFFFF" d="M192.202,337.64c-18.166,8.223-37.713,9.47-57.63,9.645c6.619-3.163,12.745-6.819,19.358-8.996
		c4.417-1.455,9.537-0.702,14.324-1.138c2.963-0.27,6.207-0.272,8.772-1.525C182.79,332.812,187.679,333.895,192.202,337.64z"/>
	<path fill="#FFFFFF" d="M280.723,379.461c3.496-4.65,7.047-8.243,13.18-8.823c11.011-1.041,21.93-3.062,32.888-4.673
		c0.241,0.509,0.482,1.018,0.723,1.528c-3.844,2.066-7.475,5.138-11.573,6.007C304.304,375.969,292.476,377.538,280.723,379.461z"/>
	<path fill="#FFFFFF" d="M461.637,96.909c2.016,1.227,3.653,3.091,5.055,2.928c6.397-0.743,7.652,4.191,9.9,8.163
		c1.278,2.258,2.628,4.475,3.389,7.66c-9.902-3.876-19.804-7.751-30.7-12.016C454.013,101.064,457.842,98.977,461.637,96.909z"/>
	<path fill="#FFFFFF" d="M281.677,352.443c-25.227,3.913-50.448,7.86-75.685,11.702c-3.591,0.547-7.26,0.583-10.894,0.856
		c-0.349-0.394-0.698-0.788-1.047-1.183c0.999-0.909,1.915-2.49,3.009-2.624c14.672-1.796,29.379-3.304,44.056-5.061
		c11.866-1.42,23.702-3.087,35.554-4.622c1.609-0.208,3.234-0.291,4.852-0.432C281.573,351.534,281.625,351.989,281.677,352.443z"/>
	<path fill="#FFFFFF" d="M577.042,328.32c-8.375-7.542-17.995-11.699-22.354-22.827c7.533,2.002,14.257,3.756,20.947,5.628
		c0.581,0.163,1.333,1.1,1.346,1.693C577.09,317.658,577.042,322.505,577.042,328.32z"/>
	<path fill="#FFFFFF" d="M423.121,104.531c-28.691,17.114-58.49,28.577-88.661,35.653
		C362.918,128.74,392.544,116.827,423.121,104.531z"/>
	<path fill="#FFFFFF" d="M737.736,472.674c0-7.76-0.096-15.213,0.117-22.656c0.028-0.97,1.484-2.389,2.557-2.734
		c1.988-0.638,4.181-0.636,6.853-0.971c0,7.703,0.122,15.158-0.139,22.598c-0.037,1.051-1.778,2.496-3.023,2.944
		C742.313,472.499,740.255,472.395,737.736,472.674z"/>
	<path fill="#FFFFFF" d="M749.154,437.812c0-2.122,0-3.593,0-5.893c12.227,0.917,24.341,1.825,36.644,2.748c0,2.109,0,3.87,0,6.134
		C773.569,439.804,761.599,438.827,749.154,437.812z"/>
	<path fill="#FFFFFF" d="M462.969,65.057c-20.913,11.848-42.462,22.288-66.794,25.343C418.44,81.952,440.705,73.505,462.969,65.057z
		"/>
	<path fill="#FFFFFF" d="M460.754,246.026c-11.183-1.666-12.147-2.468-12.019-9.815c0.083-4.757,3.138-6.769,12.019-7.846
		C460.754,234.252,460.754,240.121,460.754,246.026z"/>
	<path fill="#FFFFFF" d="M539.933,268.452c23.053,5.791,44.736,11.238,67.27,16.898c-3.937-0.383-7.14-0.656-10.334-1.015
		c-3.304-0.372-6.675-0.517-9.884-1.302c-14.017-3.43-28.007-6.979-41.946-10.712C543.323,271.861,541.97,270.044,539.933,268.452z"
		/>
	<path fill="#FFFFFF" d="M289.983,209.18c11.101-5.004,22.21-9.993,33.298-15.025c2.194-0.996,4.312-2.158,6.882-3.454
		c0.676,3.405,1.586,6.137-2.284,7.339c-12.003,3.728-24.006,7.458-36.022,11.144c-0.585,0.179-1.297-0.058-1.951-0.102
		C289.905,209.081,289.983,209.18,289.983,209.18z"/>
	<path fill="#FFFFFF" d="M718.295,477.505c4.278,0,7.541-0.275,10.71,0.15c1.1,0.148,2.616,1.921,2.819,3.14
		c0.649,3.878,0.769,7.845,1.215,13.241C727.823,488.189,723.419,483.25,718.295,477.505z"/>
	<path fill="#FFFFFF" d="M638.358,363.396c12.83-2.527,25.644-5.143,38.508-7.485c1.967-0.358,4.203,0.404,6.251,0.906
		c6.085,1.491,12.138,3.11,17.986,5.769c-6.024-1.235-12.007-2.78-18.087-3.6c-4.289-0.579-8.801-0.754-13.056-0.093
		c-10.45,1.624-20.809,3.835-31.205,5.811C638.622,364.268,638.49,363.832,638.358,363.396z"/>
	<path fill="#FFFFFF" d="M448.962,226.997c0-4.297,0-8.03,0-12.19c3.604,1.062,6.909,1.919,10.113,3.06
		c0.81,0.289,1.834,1.506,1.803,2.259c-0.043,1.069-0.717,2.669-1.566,3.049C456.068,224.625,452.647,225.677,448.962,226.997z"/>
	<path fill="#FFFFFF" d="M635.314,338.531c1.778,1.366,3.996,3.071,7.526,5.784c-8.647,0-15.965,0-23.883,0
		c2.061-3.062,3.399-5.001,7.517-3.616C628.712,341.452,631.869,339.471,635.314,338.531z"/>
	<path fill="#FFFFFF" d="M181.431,330.024c-6.097,1.236-12.194,2.472-18.291,3.709c-0.183-0.38-0.366-0.76-0.549-1.14
		c1.349-1.801,2.408-3.973,4.119-5.311c2.311-1.806,4.763-4.274,8.174-1.024c1.498,1.428,4.029,1.773,6.09,2.61
		C181.127,329.254,181.279,329.639,181.431,330.024z"/>
	<path fill="#FFFFFF" d="M196.521,339.098c9.082,2.048,18.163,4.097,27.593,6.224C216.688,347.434,205.301,345.068,196.521,339.098z
		"/>
	<path fill="#FFFFFF" d="M397.646,239.728c6.053-7.48,16.381-8.514,24.16-2.151C413.008,231.542,405.517,236.919,397.646,239.728z"
		/>
	<path fill="#FFFFFF" d="M490.158,258.704c7.774,0.602,15.549,1.204,24.537,1.9c-2.804,0.844-5.025,2.245-7.021,1.975
		c-5.884-0.796-11.678-2.253-17.508-3.452C490.163,258.985,490.161,258.845,490.158,258.704z"/>
	<path fill="#FFFFFF" d="M201.086,488.066c0.845-9.827,1.016-10.018,8.782-9.689C206.903,481.647,204.404,484.405,201.086,488.066z"
		/>
	<path fill="#FFFFFF" d="M188.558,411.53c6.635-1.076,13.269-2.151,19.904-3.227c0.07,0.398,0.139,0.795,0.209,1.193
		c-6.69,1.193-13.379,2.385-20.069,3.578C188.587,412.559,188.572,412.045,188.558,411.53z"/>
	<path fill="#FFFFFF" d="M192.965,417.895c-3.748,0.432-7.489,0.989-11.249,1.205c-0.922,0.053-1.909-1.009-2.866-1.559
		c1.024-0.448,2.075-1.33,3.067-1.268c3.757,0.234,7.494,0.774,11.239,1.199C193.092,417.614,193.029,417.754,192.965,417.895z"/>
	<path d="M575.248,346.378c-34.691-6.614-69.381-13.228-104.072-19.841c21.126-5.549,38.896-15.216,49.685-35.021
		c6.303,1.309,1.762,8.056,6.755,10.952c1.699-2.679,3.507-5.529,6.048-9.536c1.048,1.005,2.731,2.069,3.655,3.593
		c6.546,10.788,12.545,21.931,19.528,32.422c4.023,6.044,9.39,11.24,17.263,12.681c0.95,0.174,1.559,2.215,2.326,3.391
		C576.041,345.472,575.644,345.925,575.248,346.378z M534.348,302.731c-2.036,1.051-4.6,3.419-7.131,3.385
		c-2.478-0.033-4.923-2.513-7.65-4.071c-7.241,10.125-17.731,17.214-29.464,23.61c22.47,4.306,44.941,8.612,67.201,12.877
		C549.334,326.103,541.657,314.131,534.348,302.731z"/>
	<path d="M532.609,288.646c-2.15,1.548-3.713,3.423-4.623,3.147c-1.244-0.377-2.779-2.424-2.727-3.695
		c0.05-1.231,1.951-2.387,3.04-3.576C529.461,285.634,530.623,286.746,532.609,288.646z"/>
	<path d="M632.299,328.452c-1.929,1.405-3.128,2.918-3.97,2.74c-1.231-0.26-2.737-1.575-3.087-2.749
		c-0.207-0.695,1.588-2.809,2.481-2.808C628.944,325.636,630.163,327.043,632.299,328.452z"/>
	<path d="M502.795,228.709c-3.349-1.944-8.71,0.747-8.758-5.748c-0.017-2.245,0.41-3.97,3.289-3.656
		C502.944,219.918,503.629,220.892,502.795,228.709z"/>
	<path d="M484.983,215.794c3.085,1.036,5.45,1.831,8.046,2.703c0,2.098,0,4.188,0,7.038c-2.825-0.6-5.36-1.139-8.046-1.71
		C484.983,221.33,484.983,219.08,484.983,215.794z"/>
	<path d="M507.896,221.734c0,3.277,0,5.264,0,7.962c-1.295-0.141-3.315-0.033-3.42-0.43c-0.491-1.857-0.76-3.907-0.441-5.773
		C504.149,222.829,506.148,222.486,507.896,221.734z"/>
	<path d="M474.859,86.719c-2.519,1.991-4.154,4.236-5.441,4.052c-1.507-0.216-3.735-2.531-3.757-3.964
		c-0.021-1.405,2.19-3.746,3.697-3.993C470.638,82.605,472.309,84.797,474.859,86.719z"/>
	<path fill="#FFFFFF" d="M534.348,302.731c7.309,11.399,14.986,23.372,22.955,35.801c-22.26-4.265-44.73-8.571-67.201-12.877
		c11.733-6.396,22.223-13.485,29.464-23.61c2.727,1.558,5.172,4.038,7.65,4.071C529.748,306.15,532.312,303.783,534.348,302.731z"/>
</g>
<g>
	<g>
		<path d="M554.968,746.747c-1.757,6.393-5.329,11.657-10.717,15.793c-5.392,4.137-11.158,6.205-17.298,6.205h-64.636l5.077-18.614
			h51.33l5.076-18.989h-29.331c-5.141,0-9.245-1.505-12.315-4.513c-3.073-3.009-4.606-6.893-4.606-11.657
			c0-1.881,0.25-3.884,0.752-6.017l13.162-48.697c0.376-1.505,0.564-3.132,0.564-4.889c0-4.387-1.066-8.396-3.196-12.033
			c-2.133-3.635-4.701-5.576-7.709-5.829h48.548L511.333,713l20.339,0.309l21.995-74.975l30.445-0.826L554.968,746.747z"/>
		<path d="M678.875,709.143c-1.63,6.27-5.17,11.502-10.623,15.7c-5.452,4.201-11.252,6.299-17.392,6.299h-49.449
			c-5.265,0-9.401-1.505-12.409-4.513c-3.009-3.009-4.513-6.893-4.513-11.657c0-1.881,0.25-3.884,0.752-6.017l12.974-48.697
			c0.376-1.378,0.564-2.944,0.564-4.701c0-4.512-0.94-8.678-2.82-12.503c-1.881-3.822-4.451-5.67-7.709-5.547h87.241
			c5.265,0,9.495,1.442,12.691,4.325c3.196,2.885,4.794,6.707,4.794,11.469c0,2.007-0.252,4.075-0.752,6.205L678.875,709.143z
			 M635.631,712.527l15.229-56.406h-9.024l-15.23,56.406H635.631z"/>
		<path d="M787.361,709.143c-1.63,6.27-5.17,11.502-10.623,15.7c-5.452,4.201-11.252,6.299-17.392,6.299h-49.449
			c-5.265,0-9.401-1.505-12.409-4.513c-3.009-3.009-4.513-6.893-4.513-11.657c0-1.881,0.25-3.884,0.752-6.017l1.692-5.829h42.116
			l-2.444,9.401h9.025l5.076-18.802h-51.329l8.837-33.468c0.376-1.378,0.564-2.944,0.564-4.701c0-4.512-0.94-8.678-2.82-12.503
			c-1.881-3.822-4.451-5.67-7.709-5.547h87.241c5.265,0,9.495,1.442,12.691,4.325c3.196,2.885,4.794,6.707,4.794,11.469
			c0,2.007-0.252,4.075-0.752,6.205l-1.691,6.017h-42.117l2.444-9.401h-9.024l-5.077,18.614h51.33L787.361,709.143z"/>
		<path stroke="#FFFFFF" stroke-width="3" stroke-miterlimit="10" d="M904.309,731.142h-87.43c-5.265,0-9.401-1.505-12.409-4.513
			c-3.009-3.009-4.513-6.893-4.513-11.657c0-1.881,0.25-3.884,0.752-6.017l13.35-49.449c1.628-6.394,5.171-11.657,10.623-15.794
			c5.453-4.137,11.438-6.205,17.956-6.205h70.884l-18.614,69.38c-0.126,0.502-0.188,1.63-0.188,3.384
			c0,13.414,2.693,20.118,8.084,20.118C903.054,730.389,903.557,730.642,904.309,731.142z M851.099,712.527l15.229-56.406h-9.024
			l-15.23,56.406H851.099z M870.625,731.142c-5.375-3.016-4.375-8.475-4.458-11.308"/>
		<path d="M956.387,731.142h-42.304l18.989-70.884c0.376-1.505,0.564-3.132,0.564-4.889c0-4.26-1.066-8.24-3.196-11.939
			c-2.133-3.695-4.639-5.67-7.521-5.923h58.474L956.387,731.142z M986.471,618.705h-42.117l5.077-18.99h42.116L986.471,618.705z"/>
	</g>
	<path d="M533.298,708.955l13.162-48.697c0.376-1.505,0.564-3.132,0.564-4.889c0-4.387-1.066-8.396-3.196-12.033
		c-2.133-3.635-4.701-5.576-7.709-5.829h48.548"/>
</g>
</svg>
